<?xml version="1.0" encoding="UTF-8" standalone="no"?>
<!-- Generator: Adobe Illustrator 13.0.1, SVG Export Plug-In . SVG Version: 6.00 Build 14948)  -->

<svg
   version="1.1"
   id="katman_1"
   x="0px"
   y="0px"
   width="1108.018px"
   height="822.359px"
   viewBox="0 0 1108.018 822.359"
   enable-background="new 0 0 1108.018 822.359"
   xml:space="preserve"
   sodipodi:docname="bursa.svg"
   inkscape:version="1.2.2 (732a01da63, 2022-12-09)"
   xmlns:inkscape="http://www.inkscape.org/namespaces/inkscape"
   xmlns:sodipodi="http://sodipodi.sourceforge.net/DTD/sodipodi-0.dtd"
   xmlns="http://www.w3.org/2000/svg"
   xmlns:svg="http://www.w3.org/2000/svg"><defs
   id="defs596" /><sodipodi:namedview
   id="namedview594"
   pagecolor="#ffffff"
   bordercolor="#000000"
   borderopacity="0.25"
   inkscape:showpageshadow="2"
   inkscape:pageopacity="0.0"
   inkscape:pagecheckerboard="0"
   inkscape:deskcolor="#d1d1d1"
   showgrid="false"
   inkscape:zoom="1.4720661"
   inkscape:cx="394.34371"
   inkscape:cy="395.02303"
   inkscape:window-width="1920"
   inkscape:window-height="991"
   inkscape:window-x="-9"
   inkscape:window-y="-9"
   inkscape:window-maximized="1"
   inkscape:current-layer="XMLID_1_" />
<g
   id="XMLID_1_">
	<g
   id="g52">
		<path
   fill="#F1F5E4"
   d="M715.511,676.431c1.844-5.188,3.923-10.234,6.972-14.712c8.358-12.287,23.258-19.255,34.602-28.125    c12.9-10.08,17.512-22.586,23.278-37.176c3.46-8.765,1.626-19.506,6.749-27.74c1.93-3.104,3.902-4.963,5.911-5.934    c7.224-3.491,14.964,4.462,23.185,7.304c6.912,2.388,14.877,0.059,22.133,1.141c15.16,2.266,29.818,7.825,45.832,5.41    c12.19-1.833,23.679-23.236,33.178-8.992c4.371,6.563,3.156,11.253,11.578,12.996c5.607,1.162,17.896,1.104,23.141-0.741    c-1.685-7.276-6.354-8.993-6.333-17.606c0.021-8.667-0.074-18.093,5.821-24.648c5.501-6.114,11.349-9.861,14.163-18.375    c3.396-10.24-1.284-13.374-6.567-21.738c-4.808-7.617-3.849-13.769-3.82-23.229c0.03-12.463-3.557-20.624-8.817-31.243    c-7.603-15.352-9.733-30.992-16.189-45.896c-5.395-12.452-8.177-20.683-4.099-31.444c0.896-2.361,2.121-4.846,3.721-7.527    c3.577-5.991,8.987-11.743,15.391-14.819c5.677-2.729,13.821-2.761,18.57-7.591c5.88-5.986,1.818-13.055,4.195-20.603    c2.318-7.352,8.193-8.833,14.414-12.757c14.254-8.992,5.875-17.133,6.573-31.206c0.355-7.127-0.38-16.188,1.54-23.065    c0.938,0,2.005-0.218,2.959-0.165c0.298-4.424,3.043-15.39,0.757-19.803c-2.102-4.067-8.945-6.002-11.829-9.915    c-1.434-1.946-2.143-3.715-2.329-5.373c-0.624-5.539,4.515-9.825,7.474-15.368c4.563-8.556,8.599-17.102,16.242-24.052    c6.253-5.684,11.604-5.896,12.191-15.214c0.597-9.388-7.262-11.083-7.191-19.771c0.055-7.245,5.641-10.693,11.02-14.611    c9.926-7.233,18.434-14.323,28.357-21.168c3.551-2.452,8.258-4.003,10.209-7.383c12.494,8.358,10.911,24.958,16.775,38.412    c3.417,7.841,14.563,32.378,23.865,32.613c0.298-0.891,0.181-2.036,0.238-2.958c0.283,0.038,1.979,0.016,2.159-0.234    c0.177-0.688-0.262-1.674,0.122-2.292c0.405-0.645,1.567-0.736,2.229-0.741h0.139v658.273h-587.98    c2.016-2.804,3.519-8.305,5.977-11.48c3.412-4.421,7.036-7.518,11.328-10.978c5.405-4.354,14.926-22.074,21.413-21.008l0.059-0.17    c3.146,1.199,6.813,1.3,12.97-0.891c7.42-2.635,12.512-3.434,20.673-2.182c17.457,2.688,35.49,1.6,53.252,1.644    c8.141,0.021,14.941-1.658,21.125-7.097c8.104-7.127,3.412-13.454,5.599-22.488c2.095-8.652,10.469-13.956,15.634-20.386    c5.363-6.679,9.904-10.538,16.271-16.609C708.81,698.623,711.656,687.226,715.511,676.431z"
   id="path2" />
		<path
   fill="#F1F5E4"
   d="M1104.017,39.305v120.78h-0.14c-0.66,0.005-1.822,0.097-2.229,0.741c-0.384,0.618,0.054,1.604-0.122,2.292    c-0.182,0.25-1.876,0.272-2.159,0.234c-0.059,0.922,0.06,2.067-0.238,2.958c-9.304-0.234-20.448-24.771-23.865-32.613    c-5.864-13.454-4.281-30.054-16.775-38.412c0.772-1.322,1.113-2.932,0.799-4.983c-0.287-1.866-1.519-3.636-3.191-5.288    c1.731,0.187,3.875-0.145,5.437-0.271c4.217-11.68,10.502-17.729,18.551-26.27C1088.872,49.145,1089.565,39.417,1104.017,39.305z"
   id="path4" />
		<path
   fill="#F1F5E4"
   d="M797.837,89.061c-1.27-0.49-2.537-1.13-3.816-1.94c-2.768-1.759-4.729-3.641-6.807-5.208    c2.047-4.567,5.58-10.352,10.464-12.361c2.058-12.063-5.226-23.897-4.659-35.844c0.282-5.9,2.532-11.939,5.416-17.037    c1.566-2.771,3.465-5.441,5.88-7.543c1.124-0.979,2.281-1.651,3.593-2.323c1.78-0.911,1.188-1.259,2.249-2.805h293.861v35.306    c-14.451,0.111-15.146,9.84-23.935,19.169c-8.05,8.54-14.334,14.59-18.552,26.27c-1.562,0.128-3.704,0.458-5.437,0.271    c-3.012-2.97-7.438-5.543-10.24-7.527c-21.729-15.347-48.584-37.479-75.567-39.819c-7.483-0.649-15.384,0.037-22.895,0.037    c-5.565,0-11.957,0.864-17.469,0.021c-4.291-0.661-6.552-2.777-11.37-2.42c-15.246,1.125-20.955,20.384-29.563,30.625    c-14.104,16.765-34.5,17.81-55.391,18.949C820.806,85.58,809.464,93.544,797.837,89.061z"
   id="path6" />
		<path
   fill="#DEB28A"
   d="M1056.095,85.015c1.674,1.652,2.905,3.422,3.191,5.288c0.314,2.052-0.025,3.661-0.799,4.983    c-1.951,3.379-6.657,4.932-10.209,7.383c-9.925,6.845-18.433,13.935-28.357,21.168c-5.38,3.918-10.966,7.367-11.02,14.611    c-0.068,8.688,7.788,10.384,7.191,19.771c-0.587,9.317-5.938,9.53-12.191,15.214c-7.645,6.951-11.68,15.496-16.241,24.052    c-2.959,5.543-8.099,9.83-7.475,15.368c-8.081,0.394-14.627-4.051-23.258-4.041c-8.514,0.005-16.376-0.074-24.645,1.6    c-6.662,1.35-14.681,0.719-20.891,3.396c-6.21,2.681-8.354,12.996-13.513,13.272c0.355-1.546-0.519-3.785-0.24-5.356    c-11.786-0.22-23.642-1.754-36.658-1.718c-8.135,0.021-15.843-2.451-23.807-2.44c-7.191,0.011-9.99,3.06-15.955,5.438    c-1.935,0.773-3.892,1.216-5.863,1.439l-0.048-0.474c0.016-1.951,0.336-3.759,0.356-5.693c0.026-2.18-0.367-4.675,0.356-6.706    c0.965-2.719,1.157-4.696,0.176-7.506c-0.409-1.178-0.746-3.049-0.768-4.819c9.265,0.396,18.646-0.025,27.917-0.025    c10.037,0,19.078,0.922,28.05-3.022c8.107-3.566,16.221-6.653,23.982-10.79c8.779-4.68,28.183-14.69,18.411-27.985    c-4.766-6.472-11.498-1.216-15.837-10.16c-5.704-11.754-6.039-14.591-17.825-19.824c-15.987-7.095-33.828,2.047-51.761,0.613    c-6.638-0.528-12.805-4.841-19.463-6.307c0.635-0.224,1.179-0.554,1.43-1.028c0.57-1.099-0.112-4.249-0.225-5.49    c-0.287-3.369-0.905-7.084-3.326-9.633c-1.92-2.025-5.145-0.357-6.609-2.281c-2.489-3.269-2.266-9.862-2.341-14.249    c11.627,4.482,22.97-3.48,35.764-4.179c20.891-1.142,41.285-2.187,55.391-18.95c8.608-10.24,14.317-29.5,29.563-30.625    c4.818-0.357,7.079,1.759,11.37,2.42c5.512,0.842,11.903-0.021,17.469-0.021c7.511,0,15.41-0.688,22.896-0.037    c26.982,2.341,53.84,24.474,75.566,39.819C1048.658,79.471,1053.083,82.046,1056.095,85.015z"
   id="path8" />
		<path
   fill="#DEB28A"
   d="M724.386,255.776c-0.245-0.41-0.496-0.603-0.778-0.65c-0.405-1.391,2.895-4.231,3.688-5.313    c1.701-2.313,3.236-4.877,5.688-6.493c5.709-3.774,14.937-1.727,20.325-4.808c10.219,0.671,23.594-10.14,32.357-13.887    c9.014-3.854,19.493,0.965,29.69-0.182c1.972-0.224,3.929-0.666,5.863-1.439c5.965-2.377,8.764-5.427,15.955-5.438    c7.964-0.011,15.672,2.463,23.807,2.44c13.017-0.036,24.872,1.498,36.658,1.718c-0.277,1.571,0.597,3.811,0.239,5.356    c5.16-0.276,7.304-10.592,13.514-13.272c6.21-2.677,14.228-2.047,20.891-3.396c8.269-1.674,16.131-1.594,24.645-1.6    c8.631-0.01,15.177,4.435,23.258,4.041c0.187,1.658,0.896,3.427,2.329,5.373c2.884,3.913,9.729,5.848,11.829,9.915    c2.285,4.414-0.459,15.379-0.758,19.803c-0.953-0.053-2.021,0.165-2.959,0.165c-1.919,6.876-1.184,15.938-1.539,23.065    c-0.698,14.073,7.681,22.213-6.573,31.206c-6.222,3.924-12.095,5.405-14.414,12.757c-2.377,7.548,1.685,14.616-4.195,20.603    c-4.749,4.83-12.895,4.861-18.571,7.591c-6.401,3.076-11.813,8.828-15.39,14.819c-1.6,2.682-2.825,5.166-3.721,7.527    c-7.42,3.528-12.847,7.904-18.865,13.423c-4.744,4.344-9.889,7.058-17.612,4.652c-6.523-2.024-7.895-8.039-11.15-13.455    c-10.269-17.063-15.752-2.254-31.206-4.775c-12.244-1.994-8.992-20.849-19.147-27.964c-10.8-7.57-23.961-10.171-37.281-10.396    c0.99-3.977-0.726-7.383-7.532-9.61c-9.035-2.958-15.268-3.13-21.589-11.194c-6.228-7.938-2.788-16.909-3.338-27.048    c-3.331-1.855-3.838-6.007-6.216-8.935c-2.366-2.921-6.081-5.667-9.077-7.793c-3.662-2.59-13.589-4.206-18.571-6.306    C724.552,256.08,724.471,255.915,724.386,255.776z"
   id="path10" />
		<path
   fill="#DEB28A"
   d="M688.266,448.676c3.486-2.772,4.829-11.137,8.806-14.366c4.206-3.406,8.241-4.152,13.312-5.299    c7.682-1.728,6.962-1.332,11.595-7.617c5.874-7.971,14.579-4.59,20.692-11.114c4.671-4.984,6.393-11.21,6.375-18.37    c-0.025-10.554,1.151-13.63,6.217-22.383c3.604-6.231,5.848-16.393,15.214-14.479c3.172-7.751,18.321-19.18,20.485-27.885    c13.32,0.225,26.481,2.825,37.281,10.396c10.155,7.115,6.903,25.971,19.147,27.964c15.454,2.521,20.938-12.287,31.206,4.775    c3.257,5.416,4.627,11.43,11.15,13.455c7.725,2.404,12.868-0.309,17.612-4.652c6.019-5.519,11.445-9.895,18.865-13.424    c-4.078,10.764-1.296,18.993,4.099,31.445c6.456,14.904,8.588,30.545,16.189,45.896c5.262,10.619,8.849,18.78,8.816,31.243    c-0.026,9.462-0.985,15.612,3.821,23.229c5.283,8.364,9.963,11.498,6.567,21.738c-2.814,8.514-8.662,12.261-14.163,18.375    c-5.896,6.557-5.8,15.981-5.821,24.647c-0.021,8.614,4.648,10.331,6.333,17.607c-5.245,1.845-17.532,1.903-23.141,0.741    c-8.423-1.743-7.207-6.436-11.578-12.996c-9.499-14.244-20.986,7.159-33.179,8.992c-16.013,2.415-30.672-3.146-45.832-5.41    c-7.255-1.082-15.22,1.247-22.133-1.141c-8.22-2.843-15.96-10.795-23.184-7.304c-0.096-14.445-4.126-18.503-18.571-20.561    c-10.453-1.487-27.446,3.764-32.842-7.777c-2.591-5.555,0.729-13.226-2.138-18.604c-2.854-5.342-10.892-5.315-15.055-8.897    c-1.967-1.688-3.938-5.645-5.598-7.212c-1.882-1.774-3.145-3.229-4.936-4.622c-5.704-4.414-6.866-6.23-7.256-14.194    c-0.569-11.541,2.053-23.877-9.889-30.938c-3.577-2.111-5.661-2.074-7.207-0.891l-1.418-0.262    C688.171,448.75,688.219,448.713,688.266,448.676z"
   id="path12" />
		<path
   fill="#489FC8"
   d="M815.433,199.245c-0.219-0.005-0.433-0.016-0.65-0.025c-8.155-0.385-20.489,1.418-28.258-0.741    c-7.404-2.059-14.983-7.229-18.934-13.828c-4.762-7.953-3.449-8.54-12.31-4.797c-7.708,3.257-14.462,4.231-23.027,2.596    c-11.317-2.159-13.264-6.999-15.192-16.854c-1.647-8.374-4.003-16.999-3.166-25.619c0.356-3.71,1.306-7.891,4.493-10.229    c3.039-2.228,9.254-5.234,12.895-5.992c3.79-0.783,7.682-1.093,11.536-1.284c7.121-0.353,14.232-0.012,21.354-0.012    c11.033,0,22.703,1.142,33.679,0.064c3.203-0.32,5.362-1.658,9.44-1.077c0.543,0.08,1.081,0.176,1.614,0.298    c6.658,1.466,12.825,5.778,19.462,6.306c17.934,1.435,35.773-7.708,51.762-0.612c11.785,5.233,12.12,8.069,17.824,19.824    c4.34,8.944,11.072,3.688,15.837,10.16c9.771,13.294-9.632,23.306-18.411,27.985c-7.762,4.137-15.875,7.223-23.981,10.79    c-8.972,3.944-18.013,3.021-28.05,3.021C834.079,199.219,824.697,199.639,815.433,199.245z"
   id="path14" />
		<path
   fill="#DEB28A"
   d="M787.214,81.913c2.078,1.567,4.039,3.449,6.807,5.208c1.279,0.811,2.548,1.45,3.816,1.94    c0.074,4.387-0.148,10.98,2.341,14.249c1.466,1.924,4.689,0.256,6.608,2.28c2.422,2.549,3.039,6.265,3.327,9.634    c0.111,1.241,0.794,4.392,0.225,5.489c-0.251,0.476-0.796,0.806-1.43,1.029c-0.532-0.123-1.07-0.218-1.614-0.298    c-4.078-0.581-6.237,0.757-9.44,1.077c-10.976,1.077-22.646-0.064-33.679-0.064c-7.122,0-14.233-0.341-21.354,0.012    c-3.854,0.191-7.746,0.501-11.536,1.284c-3.641,0.758-9.854,3.765-12.895,5.992c-3.188,2.34-4.137,6.52-4.493,10.229    c-0.837,8.62,1.519,17.245,3.166,25.619c1.93,9.855,3.875,14.696,15.192,16.854c8.565,1.637,15.319,0.661,23.027-2.596    c8.859-3.742,7.549-3.156,12.31,4.797c3.948,6.6,11.528,11.77,18.934,13.828c7.769,2.159,20.104,0.356,28.258,0.741    c0.22,0.01,0.433,0.021,0.65,0.025c0.021,1.771,0.356,3.642,0.769,4.819c0.98,2.81,0.788,4.787-0.177,7.506    c-0.725,2.031-0.33,4.525-0.356,6.706c-0.021,1.935-0.342,3.742-0.356,5.693l0.048,0.474c-10.197,1.146-20.678-3.673-29.69,0.182    c-8.765,3.747-22.14,14.559-32.357,13.887c0.224-0.123,0.433-0.257,0.64-0.4c-6.221-9.76-15.244-18.018-26.328-21.824    c-7.644-2.623-14.615-7.232-23.188-7.953c-6.557-0.549-13.4,0-19.984,0c-5.544,0-15.753,2.042-19.83-2.563    c-2.549-2.879-4.397-16.711-5.177-20.8c-1.38-7.276-0.506-13.71-3.001-20.012c-2.702-6.817-2.975-11.859-3.353-19.989    c-0.353-7.421-0.165-15.235-0.624-22.768c-0.479-7.878-3.166-13.742-3.198-21.808l0.011-0.4    c15.146,0.357,29.969-3.604,43.583-10.432c8.406-4.217,14.627-12.65,24.984-11.877c11.68,0.875,18.46,8.705,30.561,7.996    c10.661-0.624,19.403-8.252,30.241-7.219C782.474,78.831,784.915,80.18,787.214,81.913z"
   id="path16" />
		<path
   fill="#F1F5E4"
   d="M601.927,4h208.229c-1.061,1.546-0.469,1.894-2.249,2.805c-1.312,0.672-2.469,1.344-3.593,2.323    c-2.415,2.102-4.313,4.771-5.88,7.543c-2.884,5.097-5.134,11.137-5.416,17.037c-0.565,11.946,6.717,23.78,4.659,35.844    c-4.883,2.01-8.417,7.793-10.465,12.361c-2.297-1.731-4.738-3.082-8.565-3.449c-10.838-1.033-19.58,6.595-30.241,7.219    c-12.101,0.709-18.881-7.122-30.561-7.996c-10.357-0.773-16.578,7.66-24.984,11.877c-13.614,6.828-28.438,10.789-43.583,10.432    c-4.313-0.101-8.646-0.554-12.991-1.386c-7.228-1.391-14.467-0.709-21.742-1.914c-8.477-1.407-15.641-7.351-23.834-9.59    c-8.443-2.309-17.335-1.002-26.162-1.423c-7.148-0.348-15.166-1.951-22.543-0.843c-20.476,3.07-13.264,20.103-13.637,35.401    c-0.154,6.215-4.75,29.186-12.281,27.676l-0.069,0.245c-2.09-0.57-4.648-0.016-6.796-0.117c-4.003-0.191-8.039,0.208-12.037,0    c-6.509-0.331-13.791-0.575-19.207-4.131c-3.283-2.153-4.729-5.885-8.779-7.921c-2.436-1.23-6.087-1.754-8.795-3.14    c-5.672-2.9-11.77-7.527-16.813-11.173c-11.029-7.98-24.938-12.219-39.031-12.933c-3.497-14.877,15.726-17.691,18.385-30.145    c2.377-0.123,6.264,0.64,8.497-0.123c2.98-1.014,3.033-2.756,5.133-4.015c7.521-4.504,15.293-6.503,23.312-9.333    c10.404-3.673,20.464-2.309,27.105-10.479c10.357-12.745,16.839-30.182,33.365-35.336c6.349-1.979,15.501-3.956,22.426-2.437    c7.255,1.595,10.299,4.846,18.566,4.835c10.832-0.011,16.882-0.005,26.402-5.197c7.506-4.088,8.967-6.86,14.175-12.389L601.927,4    L601.927,4z"
   id="path18" />
		<path
   fill="#DEB28A"
   d="M790.96,327.164c-2.163,8.705-17.313,20.134-20.484,27.885c-9.366-1.913-11.61,8.246-15.214,14.479    c-5.064,8.753-6.242,11.829-6.216,22.383c0.017,7.159-1.705,13.385-6.375,18.37c-6.114,6.524-14.819,3.145-20.693,11.114    c-4.633,6.285-3.913,5.891-11.595,7.617c-5.069,1.146-9.104,1.893-13.312,5.299c-3.977,3.23-5.318,11.594-8.806,14.366    c-10.405-0.203-23.945-15.992-31.188-22.564c-5.741-5.214-12.564-21.856-22.246-19.926c0.106-0.395,0.246-0.773,0.416-1.142    c2.5-5.517,11.169-8.337,13.051-14.695c2.121-7.144-0.272-18.172-1.596-24.777c-1.295-6.477-2.066-10.869-4.834-15.72    c-0.502-8.204,7.777-15.821,13.791-21.066c4.285-3.73,14.43-5.661,17.446-9.813c2.352-3.247,0.592-12.954,0-16.813    c-1.125-7.346-5.319-13.795-3.396-20.603c1.258-4.446,5.597-9.286,8.337-13.161c7.403-10.48,16.845-16.631,26.221-24.404    l0.47-0.517c0.618,0.362,1.258,0.8,1.931,1.316c3.188,2.475,4.504,6.563,7.468,9.218c1.754,1.566,3.859,2.659,6.248,2.127    c1.027-0.229,1.773-0.629,2.366-0.854c0.489,0.353,1.13,0.677,1.888,0.997c4.982,2.102,14.909,3.716,18.571,6.306    c2.995,2.127,6.712,4.873,9.077,7.793c2.379,2.928,2.885,7.079,6.217,8.935c0.549,10.139-2.891,19.109,3.337,27.048    c6.321,8.065,12.554,8.236,21.589,11.194C790.235,319.781,791.951,323.187,790.96,327.164z"
   id="path20" />
		<path
   fill="#DEB28A"
   d="M774.451,542.185c14.445,2.058,18.477,6.114,18.571,20.561c-2.009,0.971-3.98,2.83-5.911,5.934    c-5.123,8.234-3.289,18.977-6.749,27.74c-5.768,14.59-10.378,27.096-23.277,37.176c-11.345,8.87-26.243,15.838-34.603,28.125    c-3.049,4.478-5.128,9.524-6.972,14.712c-12.31-5.017-25.07-13.987-36.648-21.663c-6.893-4.568-12.441-3.716-20.752-3.801    c-3.668-0.043-7.645,0.688-10.65-1.601c-3.796-2.884-2.03-5.059-4.157-9.237c-1.956-3.844-5.613-7.793-9.101-11.563    c-1.828-1.967-3.607-3.892-5.068-5.726c-4.739-5.929-9.063-10.88-14.975-16.029c-5.592-4.877-8.565-9.179-12.367-15.016    c-3.561-5.465-8.636-9.105-12.479-14.414c-1.552-2.145-2.879-3.523-3.278-6.217c6.242-5.025,6.007-9.382,7.101-16.945    c1.321-9.163,8.198-10.341,12.768-17.575c8.576-13.604-10.357-24.286-9.574-39.195c0.017-0.271,0.026-0.539,0.043-0.8    c0.57-9.984,1.524-11.019,11.771-8.929c7.756,1.578,14.206,3.331,22.395,3.331c5.661,0,14.856,1.817,20.165,0.038    c8.146-2.729,9.691-11.771,14.59-17.646c4.933-5.917,12.287-8.844,17.438-14.403c3.321-3.593,4.42-8.166,6.808-9.994    c1.546-1.185,3.63-1.222,7.207,0.891c11.94,7.063,9.318,19.396,9.89,30.938c0.389,7.965,1.551,9.781,7.255,14.195    c1.791,1.393,3.054,2.848,4.936,4.622c1.658,1.567,3.631,5.522,5.599,7.212c4.162,3.582,12.2,3.557,15.054,8.897    c2.867,5.378-0.453,13.049,2.138,18.604C747.005,545.949,763.999,540.698,774.451,542.185z"
   id="path22" />
		<path
   fill="#DEB28A"
   d="M659.124,254.001c-0.618,0.331-1.339,0.528-2.25,0.479c-2.11-0.112-2.224-4.174-3.955-4.771    c-1.668-0.576-3.679,0.154-5.416-0.123c-3.178-0.501-6.6,0.513-9.771,0c-4.163-0.666-6.056-2.724-9.596-3.815    c-7.592-2.34-17.319-0.981-25.405-0.981c-22.671,0-50.146-8.981-72.209-1.295c0.197-2.33-0.399-4.659-1.732-7.067    c-1.706-3.081-4.023-9.616-7.639-9.616l-0.069-0.24c8.204-2.351,15.055-6.13,24.079-7.361c9.648-1.321,10.225-2.095,15.944-10.612    c7.105-10.598,17.196-26.109,29.451-30.343c5.214-1.802,16.744-3.476,17.777-9.419c0.778-4.439-9.909-18.135-12.825-20.885    c-6.392-6.029-26.04-16.45-35.155-16.696c-8.396-0.218-11.646,6.558-18.971,9.835c-6.173,2.768-17.438,11.35-22.438,10.796    c0.448,0-1.588-3.306-2.708-3.657c-0.075-0.021-0.144-0.042-0.219-0.064l0.069-0.245c7.531,1.51,12.127-21.461,12.281-27.676    c0.373-15.299-6.839-32.331,13.637-35.401c7.377-1.108,15.395,0.496,22.543,0.843c8.828,0.421,17.719-0.886,26.163,1.423    c8.192,2.239,15.356,8.183,23.833,9.59c7.275,1.205,14.516,0.522,21.742,1.914c4.346,0.832,8.68,1.285,12.991,1.386l-0.011,0.4    c0.032,8.064,2.719,13.929,3.198,21.808c0.459,7.532,0.271,15.348,0.624,22.768c0.378,8.129,0.649,13.172,3.353,19.989    c2.495,6.302,1.621,12.735,3.001,20.012c0.778,4.089,2.628,17.921,5.178,20.8c4.076,4.604,14.285,2.563,19.829,2.563    c6.583,0,13.429-0.549,19.984,0c8.571,0.721,15.544,5.331,23.188,7.953c11.082,3.807,20.106,12.063,26.327,21.824    c-0.208,0.145-0.416,0.277-0.64,0.4c-5.389,3.081-14.616,1.033-20.325,4.808c-2.452,1.615-3.987,4.179-5.688,6.493    c-0.794,1.082-4.095,3.923-3.688,5.313c-0.25-0.042-0.533,0.027-0.857,0.155c-0.592,0.224-1.338,0.624-2.366,0.854    c-2.39,0.532-4.494-0.561-6.248-2.127c-2.964-2.655-4.28-6.743-7.468-9.218c-0.672-0.517-1.313-0.954-1.931-1.316    c-7.213-4.253-11.099,1.541-19.659,3.758c-7.942,2.058-13.854,0.352-21.803,3.753    C661.538,251.725,660.594,253.228,659.124,254.001z"
   id="path24" />
		<path
   fill="#DEB28A"
   d="M715.511,676.431c-3.854,10.795-6.701,22.19-15.177,30.283c-6.365,6.071-10.906,9.932-16.271,16.609    c-5.165,6.43-13.539,11.732-15.634,20.386c-2.187,9.034,2.505,15.361-5.598,22.488c-6.185,5.438-12.985,7.116-21.125,7.097    c-17.763-0.043-35.796,1.045-53.254-1.644c-8.16-1.252-13.252-0.453-20.672,2.182c-6.156,2.189-9.825,2.09-12.97,0.891    c-4.238-1.604-7.527-5.198-14.691-7.842c-7.836-2.891-16.108-4.941-24.467-7.356c6.936-7.5,17.395-13.693,22.532-22.19    c7.021-11.626,14.259-22.335,21.947-33.199c3.017-4.259,12.825-10.98,13.892-15.592c0.356-1.546,0.074-2.996-0.612-4.334    c2.511-1.604,5.287-3.033,7.147-5.063c3.246-3.545,1.759-6.664,3.896-9.611c2.616-3.608,8.607-4.425,11.936-7.238    c2.942-2.5,3.465-4.397,5.575-8.107c3.764-6.637,10.491-10.001,15.39-16.632c4.852-6.567,6.199-9.92,15.752-8.977l1.093-0.012    c3.486,3.77,7.145,7.72,9.101,11.563c2.127,4.18,0.362,6.354,4.158,9.237c3.006,2.287,6.981,1.558,10.649,1.601    c8.312,0.085,13.859-0.769,20.752,3.801C690.44,662.444,703.202,671.416,715.511,676.431z"
   id="path26" />
		<path
   fill="#DEB28A"
   d="M704.737,243.473l-0.47,0.517c-9.376,7.772-18.816,13.924-26.221,24.404    c-2.74,3.875-7.079,8.715-8.337,13.161c-1.926,6.808,2.271,13.257,3.396,20.603c0.592,3.859,2.351,13.566,0,16.813    c-3.018,4.151-13.161,6.082-17.447,9.813c-6.013,5.245-14.292,12.863-13.79,21.066c-0.886-1.557-1.979-3.161-3.357-4.894    c-5.256-6.604-5.789-11.028-7.122-19.292c-11.601-0.624-15.064-3.555-24.602-9.051c1.094-0.602,3.315-3.614,4.639-4.446    c-1.242-2.733-2.617-5.814-3.358-9.029c-0.176-0.747-0.31-1.493-0.405-2.244c4.904-2.996,7.202-8.694,12.66-11.909    c6.999-4.126,9.591-5.699,14.563-12.212c6.05-7.921,20.678-12.82,24.238-22.772c1.471-0.772,2.414-2.275,4.151-3.017    c7.948-3.401,13.859-1.695,21.803-3.753C693.639,245.014,697.524,239.219,704.737,243.473z"
   id="path28" />
		<path
   fill="#DEB28A"
   d="M491.139,442.977c0.256-4.212,3.47-13.215,6.184-13.349c4.974-0.25,5.901-3.801,8.481-7.377    c3.459-4.799,8.188-9.813,8.971-15.949c0.997-7.783-1.631-12.698,1.781-20.166c1.807-3.967,5.564-7.725,6.876-11.818    c1.002-3.119-0.16-6.141,1.541-8.993c2.015-3.375,4.574-2.761,6.594-4.601c3.358-3.07,2.367-1.498,3.998-6.578    c2.767-8.614,5.171-12.943-0.021-20.849c-4.658-7.09-9.701-9.835-15.213-15.544c-5.106-5.288-9.733-12.266-13.769-18.593    c-1.866-2.927-3.15-6.786-5.378-9.595c-1.643-2.068-4.574-2.521-6.818-4.457c0.416-0.565,0.879-1.199,1.423-1.919    c3.411-4.526,8.748-6.535,12.617-10.598c4.03-4.232,6.706-9.573,10.347-14.009c2.868-3.497,7.469-5.815,9.819-9.595    c1.157-1.86,1.796-3.678,1.951-5.496c22.063-7.687,49.538,1.295,72.209,1.295c8.086,0,17.813-1.358,25.405,0.981    c3.54,1.093,5.433,3.149,9.596,3.815c3.172,0.513,6.594-0.501,9.771,0c1.737,0.277,3.748-0.453,5.416,0.123    c1.731,0.598,1.845,4.659,3.955,4.771c0.911,0.048,1.632-0.149,2.25-0.479c-3.562,9.952-18.188,14.852-24.238,22.772    c-4.975,6.514-7.564,8.086-14.563,12.212c-5.458,3.214-7.756,8.913-12.66,11.909c0.097,0.751,0.229,1.498,0.405,2.244    l-0.544,0.021c-7.836,2.239-10.629,11.024-17.591,14.393c-4.382,2.116-7.745,1.045-10.171,6.578    c-2.005,4.574-0.427,8.918-0.203,13.588c0.251,5.229,0.55,11.194-1.636,15.827c-1.761,3.731-4.883,4.579-7.042,7.98    c-4.969,7.836,1.065,17.202,4.798,23.049c2.414,1.829,2.457,1.472,3.182,4.835c17.442,0.736,35.107-0.661,52.528,0.224    c0.356,6.658,0.453,9.494,3.321,15.07l0.537,0.341c-0.171,0.368-0.31,0.747-0.416,1.142c9.682-1.931,16.505,14.712,22.245,19.926    c7.244,6.572,20.784,22.361,31.189,22.564c-0.048,0.036-0.096,0.073-0.149,0.111l1.418,0.262    c-2.388,1.827-3.485,6.401-6.808,9.994c-5.149,5.561-12.505,8.486-17.437,14.403c-4.898,5.874-6.444,14.915-14.591,17.646    c-5.309,1.779-14.504-0.038-20.165-0.038c-8.188,0-14.639-1.753-22.395-3.331c-10.245-2.09-11.199-1.057-11.771,8.929h-0.043    c-1.061-0.064-2.024,0.063-3.055-0.139c-1.252-7.825-12.74-0.726-16.813-7.021c-3.599-5.564,2.831-14.574,4.456-19.228    c1.497-4.275,3.651-16.786-3.736-18.423c-5.805-1.29-9.18,9.223-12.676,12.053c-9.771,7.899-26.228,0.581-34.714-6.247    c-11.514-9.271-19.909-9.787-35.667-10.71c-0.842-1.108-1.914-2.281-3.001-3.427C491.123,443.344,491.129,443.168,491.139,442.977    z"
   id="path30" />
		<path
   fill="#DEB28A"
   d="M641.868,349.851c2.768,4.851,3.539,9.244,4.834,15.72c1.322,6.604,3.717,17.634,1.596,24.777    c-1.883,6.358-10.551,9.179-13.051,14.695l-0.537-0.341c-2.868-5.576-2.965-8.412-3.321-15.069    c-17.421-0.886-35.086,0.512-52.528-0.225c-0.725-3.363-0.768-3.006-3.182-4.835c-3.731-5.848-9.767-15.213-4.798-23.049    c2.158-3.401,5.281-4.249,7.042-7.98c2.186-4.632,1.887-10.597,1.636-15.826c-0.225-4.67-1.802-9.015,0.203-13.589    c2.426-5.532,5.789-4.461,10.171-6.577c6.962-3.369,9.755-12.154,17.591-14.394l0.544-0.021c0.741,3.214,2.116,6.295,3.358,9.029    c-1.322,0.832-3.545,3.845-4.639,4.446c9.536,5.496,13.001,8.428,24.602,9.051c1.333,8.264,1.866,12.688,7.122,19.292    C639.89,346.69,640.982,348.294,641.868,349.851z"
   id="path32" />
		<path
   fill="#DEB28A"
   d="M491.123,443.51c1.087,1.146,2.159,2.317,3.001,3.427c15.758,0.923,24.153,1.439,35.668,10.71    c8.485,6.828,24.941,14.147,34.713,6.247c3.496-2.83,6.871-13.343,12.676-12.053c7.389,1.637,5.234,14.146,3.736,18.423    c-1.625,4.653-8.055,13.662-4.456,19.228c4.071,6.296,15.561-0.805,16.813,7.021c1.029,0.202,1.994,0.074,3.055,0.139h0.044    c-0.018,0.261-0.027,0.527-0.044,0.8c-0.782,14.909,18.15,25.593,9.574,39.195c-4.567,7.234-11.444,8.412-12.768,17.575    c-1.093,7.563-0.857,11.92-7.101,16.945c0.399,2.692,1.728,4.072,3.278,6.217c3.843,5.309,8.918,8.949,12.479,14.414    c3.801,5.837,6.774,10.139,12.366,15.016c5.912,5.149,10.234,10.102,14.975,16.029c1.461,1.834,3.241,3.759,5.068,5.726    l-1.093,0.011c-9.553-0.942-10.9,2.409-15.752,8.978c-4.898,6.631-11.626,9.995-15.39,16.632c-2.11,3.71-2.634,5.607-5.575,8.107    c-3.327,2.813-9.318,3.63-11.937,7.238c-2.138,2.947-0.649,6.066-3.896,9.611c-1.86,2.03-4.638,3.459-7.148,5.063    c-1.925-3.806-7.053-6.731-9.841-8.459c-6.944-4.297-14.088-8.033-20.784-12.81c-5.82-4.158-12.446-5.789-18.412-9.579    c-10.672-6.781-10.938-22.128-16.993-31.957c-3.935-6.376-10.103-4.51-14.211-9.596c-3.562-4.408-2.176-14.291-2.5-19.889    c-16.872-0.929-25.571,6.85-39.021,15.288c-12.648,7.938-31.408,12.335-45.534,6.552c3.05-5.146,11.259-8.406,7.132-16.387    c-2.463-4.767-10.649-7.729-14.232-12.153c-2.297-2.847-9.083-11.185-9.009-14.99c0.166-8.001,11.438-10.672,16.359-15.171    c5.858-5.352,8.497-12.532,15.704-16.828c5.021-3.002,11.53-3.742,14.526-9.201c3.149-5.752,2.104-17.97,1.481-24.963    c-0.762-8.599-0.356-16.979-7.078-21.829c-6.151-4.439-14.138-6.019-20.343-10.313c-6.866-4.75-10.133-12.521-13.412-19.867    c-0.196-0.448-0.384-0.901-0.555-1.359c2.74-0.017,5.544-0.16,8.177-0.283c8.124-0.366,16.328-1.454,23.637-5.517    c3.843-2.138,5.347-6.194,10.133-6.461c4.387-0.245,8.63-0.096,12.969-0.783c2.223-0.353,4.355-1.264,6.589-1.557    c2.703-0.354,6.167-0.39,8.87-0.06c2.884,0.353,4.995,2.426,7.452,3.955c3.188,1.979,5.507,3.514,9.317,3.508    c2.378,0,4.563-0.31,6.818-0.484C490.809,443.179,490.969,443.344,491.123,443.51z"
   id="path34" />
		<path
   fill="#489FC8"
   d="M298.362,222.156c-9.611-4.473-18.678-9.435-29.211-11.562c-16.035-3.236-36.104-0.182-52.592-0.182    c-12.697,0-30.15,3.193-42.41,0.017c-3.422-0.886-5.635-4.047-8.913-5.042c-4.397-1.333-9.627-0.539-14.153-0.476    c-13.119,0.176-26.236,0.576-39.36,0.704c-3.038,0.027-5.981,0.31-8.87,0.725c-10.405,1.52-20.118,4.867-30.987,4.867    c-12.81,0.005-23.306,1.109-34.42,6.185c-4.909,2.238-9.227,5.917-14.355,7.452c-5.688,1.694-12.223,0.544-17.628,3.155H4V4    h597.927v0.128c-5.208,5.528-6.669,8.301-14.175,12.389c-9.521,5.191-15.57,5.187-26.402,5.197    c-8.269,0.011-11.313-3.24-18.566-4.835c-6.925-1.52-16.077,0.458-22.426,2.437c-16.524,5.155-23.007,22.591-33.365,35.336    c-6.642,8.172-16.7,6.808-27.105,10.479c-8.019,2.831-15.79,4.829-23.312,9.333c-2.1,1.259-2.152,3.001-5.133,4.015    c-2.232,0.762-6.12,0-8.497,0.123c-2.66,12.452-21.882,15.267-18.385,30.145c14.094,0.714,28.002,4.952,39.031,12.933    c5.043,3.646,11.141,8.272,16.813,11.173c2.708,1.386,6.359,1.908,8.795,3.14c4.052,2.036,5.496,5.769,8.779,7.921    c5.416,3.555,12.698,3.8,19.207,4.131c3.998,0.208,8.033-0.191,12.037,0c2.147,0.103,4.707-0.453,6.796,0.117    c0.075,0.021,0.144,0.043,0.219,0.064c1.119,0.352,3.156,3.656,2.708,3.656c5,0.555,16.265-8.027,22.438-10.795    c7.323-3.277,10.576-10.053,18.971-9.835c9.115,0.246,28.765,10.667,35.155,16.696c2.916,2.75,13.604,16.445,12.826,20.885    c-1.034,5.944-12.564,7.618-17.778,9.419c-12.255,4.232-22.346,19.745-29.451,30.343c-5.72,8.518-6.296,9.29-15.944,10.612    c-9.024,1.231-15.875,5.011-24.078,7.361c-0.55,0.16-1.104,0.31-1.669,0.453c-6.312,1.609-16.456,2.426-23.027,1.774    c-7.617-0.752-12.052-6.146-17.415-11.371c-4.813-4.686-8.321-10.452-15.348-12.654c-8.608-2.692-12.355,3.177-20.783,3.241    c-15.438,0.111-32.854-2.538-47.235,3.017c-7.079,2.729-11.85,4.185-19.771,4.179c-7.597-0.011-14.762,2.873-21.648,2.517    c-0.188,3.337-0.053,6.817-0.24,10.154c-13.806,0.698-33.242,3.146-46.057-1.657C304.61,224.992,301.46,223.6,298.362,222.156z     M276.507,100.874c0.337-6.807,3.146-12.586,4.696-19.067c-1.706-0.145-3.571-0.533-5.276-0.165    c-0.746,0.165-1.099,0.346-1.92,0.181c-0.597-0.123-1.184-0.395-1.807-0.411c-0.751-0.021-1.541,0.06-2.223,0.405    c-2.697,1.391-2.144,5.528-1.834,7.975c0.389,3.092,1.477,6.393,1.167,9.526c-0.442,4.574-4.483,23.385,5.521,20.448    C276.603,113.565,276.182,107.648,276.507,100.874z"
   id="path36" />
		<path
   fill="#DEB28A"
   d="M573.412,684.209c0.688,1.338,0.971,2.787,0.613,4.334c-1.065,4.61-10.875,11.332-13.892,15.592    c-7.688,10.863-14.927,21.572-21.947,33.198c-5.139,8.497-15.597,14.691-22.532,22.191c-0.507-0.144-1.013-0.293-1.52-0.442    c-4.964-1.461-7.527-2.81-12.148-0.196c-3.284,1.854-3.529,5.857-7.122,7.271c-7.585,2.979-15.191-1.859-22.309,2.537    c-7.117,4.403-8.717,9.2-19.361,6.999c-8.135-1.679-12.729-9.803-17.165-16.732c-2.991-4.686-6.306-9.377-8.785-14.217    c-2.394-4.676-1.833-9.958-3.801-14.265c-1.157-2.532-4.845-5.656-7.015-7.751c-1.808-1.738-4.867-5.864-6.375-7.021    c-10.667-8.167-18.29-8.998-19.229-23.272c-0.683-10.357-0.347-21.749-5.555-31.1c-1.221-2.19-2.425-3.789-3.636-4.883    c1.23-6.893-2.005-12.506-4.388-18.902c-1.498-4.047-10.646-12.867-7.852-17.011c2.852-4.231,13.332,2.229,17.495,2.458    c8.229,0.458,11.258-3.981,18.209-6.552c0.148-0.965,0.512-1.85,1.013-2.687c14.126,5.782,32.885,1.386,45.534-6.553    c13.449-8.438,22.147-16.216,39.02-15.288c0.325,5.599-1.061,15.48,2.5,19.89c4.11,5.086,10.277,3.22,14.212,9.596    c6.056,9.829,6.321,25.176,16.993,31.957c5.966,3.79,12.591,5.421,18.412,9.579c6.695,4.774,13.838,8.513,20.784,12.81    C566.359,677.476,571.487,680.403,573.412,684.209z"
   id="path38" />
		<path
   fill="#F1F5E4"
   d="M93.368,453.617c2.202,5.938,1.828,11.931,2.441,19.084c0.624,7.233,0.746,14.926,1.599,22.352    c1.21,10.539,8.385,13.625,14.43,20.726c3.007,3.534,4.232,8.759,7.714,12.133c2.228,2.17,8.442,3.614,10.074,6.104    c3.62,5.521,3.587,18.816,6.142,25.758c5.219,14.169,15.479,37.016,31.823,39.841c2.9,0.501,6.114-0.441,8.972,0.183    c4.487,0.979,7.958,3.98,12.389,5.81c8.235,3.401,17.367,5.598,25.992,6.983c14.69,2.351,25.656,12.36,28.114,27.874    c16.572,3.923,11.019,32.495,24.793,41.481c11.871,7.74,24.164-0.959,34.212-6.396c15.187-8.216,24.835-5.479,41.611-5.396    c10.324,0.055,15.592-3.619,23.385-10.197c5.729-4.841,10.198-7.463,14.579-3.502c1.21,1.094,2.415,2.691,3.636,4.884    c5.208,9.35,4.872,20.74,5.555,31.099c0.938,14.275,8.562,15.105,19.229,23.273c1.508,1.155,4.567,5.281,6.375,7.021    c2.17,2.095,5.857,5.219,7.015,7.751c1.967,4.307,1.407,9.589,3.801,14.265c2.479,4.841,5.795,9.531,8.785,14.218    c4.436,6.93,9.03,15.054,17.165,16.731c10.646,2.201,12.244-2.596,19.361-6.999c7.116-4.396,14.723,0.442,22.309-2.537    c3.593-1.413,3.838-5.416,7.122-7.271c4.622-2.612,7.187-1.265,12.148,0.196c0.506,0.149,1.013,0.3,1.52,0.442    c8.358,2.415,16.631,4.467,24.467,7.356c7.165,2.644,10.454,6.236,14.691,7.842l-0.059,0.17    c-6.487-1.066-16.009,16.653-21.413,21.008c-4.292,3.46-7.916,6.557-11.328,10.978c-2.458,3.177-3.961,8.678-5.977,11.48H4    V227.998h1.461c5.405-2.611,11.94-1.46,17.628-3.156c5.128-1.534,9.446-5.213,14.355-7.451c11.114-5.075,21.61-6.179,34.42-6.185    c10.869,0,20.582-3.348,30.987-4.867c-1.423,17.628,7.634,37.362-7.798,51.286c-2.276,2.054-5.283,1.94-7.612,5.454    c-2.768,4.174-3.358,10.549-6.002,14.691c-1.237,1.935-4.744,4.243-5.476,6.157c-1.338,3.48,0.342,8.454-0.144,12.148    c-2.682,20.433-19.963,15.219-35.177,17.475c-26.813,3.977-1.834,22.899,9.478,31.227c17.575,12.943-3.177,26.648-1.481,43.754    c0.875,8.849,5.447,16.909,12.591,21.771c8.988,6.113,12.964,8.24,17.394,18.428c3.406,7.842,9.206,14.308,13.209,21.541    C92.451,451.388,92.958,452.503,93.368,453.617z"
   id="path40" />
		<path
   fill="#DEB28A"
   d="M490.654,443.014c-2.255,0.176-4.439,0.485-6.817,0.485c-3.812,0.005-6.131-1.53-9.318-3.509    c-2.458-1.529-4.568-3.604-7.452-3.955c-2.703-0.331-6.167-0.294-8.87,0.06c-2.232,0.293-4.366,1.204-6.589,1.557    c-4.339,0.688-8.582,0.538-12.969,0.783c-4.787,0.267-6.29,4.323-10.133,6.461c-7.31,4.063-15.513,5.149-23.637,5.517    c-2.633,0.123-5.437,0.268-8.177,0.283c-2.868-7.623-2.207-16.632-6.306-23.78c-4.328-7.548-16.61-10.672-24.323-14.979    c-4.339-2.415-8.497-5.294-11.994-8.817c-4.354-4.387-14.281-17.964-14.435-24.733c0.096-0.06,0.187-0.123,0.276-0.192    c3.136-2.351,0.293-7.634,1.525-11.066c1.007-2.799,4.536-5.997,6.439-8.4c5.933-7.521,7.97-8.966,6.993-18.77    c-0.697-6.999,0.513-15.943-1.386-22.581c-1.486-5.219-3.891-10.592-5.938-15.768l0.128-0.048c4.062-0.31,5.805-4.223,9.595-4.797    c4.771-0.721,7.767,1.876,11.072,3.891c-1.002-7.67,8.821-2.255,13.556-3.833c1.749-0.581,3.795-3.977,6.594-4.856    c3.332-1.044,5.997-0.352,9.553,0c6.609,0.656,12.196,1.37,18.391,3.802c5.869,2.308,10.987,7.713,17.453,7.531    c3.966,7.106,21.344-1.85,21.845-8.812c11.056-0.586,18.391,0.437,28.647-2.718c7.073-2.175,6.551-1.919,9.989-6.658    c2.244,1.935,5.177,2.388,6.818,4.457c2.229,2.809,3.513,6.668,5.378,9.595c4.035,6.327,8.662,13.306,13.769,18.593    c5.513,5.709,10.556,8.455,15.214,15.544c5.191,7.905,2.788,12.234,0.021,20.849c-1.631,5.08-0.64,3.507-3.998,6.578    c-2.02,1.839-4.579,1.226-6.594,4.601c-1.701,2.853-0.539,5.874-1.541,8.993c-1.313,4.094-5.069,7.852-6.876,11.818    c-3.412,7.468-0.784,12.383-1.781,20.166c-0.784,6.136-5.512,11.15-8.971,15.949c-2.58,3.576-3.508,7.127-8.481,7.377    c-2.713,0.134-5.928,9.137-6.184,13.349C490.974,442.988,490.814,443,490.654,443.014z"
   id="path42" />
		<path
   fill="#DEB28A"
   d="M494.364,285.11c-3.438,4.739-2.916,4.483-9.99,6.658c-10.256,3.154-17.591,2.132-28.646,2.718    c-0.501,6.962-17.879,15.917-21.845,8.812c-6.466,0.182-11.583-5.224-17.453-7.531c-6.194-2.432-11.78-3.146-18.392-3.802    c-3.555-0.352-6.221-1.044-9.552,0c-2.799,0.881-4.846,4.275-6.594,4.856c-4.733,1.578-14.558-3.838-13.556,3.833    c-3.306-2.015-6.302-4.611-11.072-3.891c-3.79,0.575-5.533,4.487-9.595,4.797l-0.128,0.048c-0.539-1.354-1.051-2.692-1.515-4.009    c-3.63-10.326-4.243-7.415-12.751-12.037c-5.49-2.98-6.481-16.397-14.227-14.229c-2.953,0.832-1.615,5.934-6.563,6.231    c-3.849,0.234-6.386-1.285-5.677-5.49c-7.095-1.2-7.116,9.083-15.192,6.157c-4.073-1.478-8.188-11.313-7.756-15.832    c0.65-6.732,6.802-13.018,8.614-19.249c1.104-3.8,0.389-7.896,0.757-11.786c0.181-1.893,0.586-3.817,1.61-5.448    c0.538-0.869,1.15-1.37,1.919-1.935c0.672-0.496,0.948-1.344,1.599-1.829c3.097,1.444,6.248,2.836,9.526,4.067    c12.814,4.803,32.25,2.355,46.057,1.657c0.188-3.337,0.053-6.817,0.24-10.154c6.887,0.356,14.052-2.527,21.648-2.517    c7.921,0.005,12.691-1.45,19.771-4.179c14.382-5.555,31.797-2.905,47.235-3.017c8.428-0.064,12.175-5.934,20.783-3.241    c7.025,2.202,10.533,7.969,15.348,12.655c5.363,5.224,9.798,10.618,17.415,11.37c6.573,0.65,16.717-0.166,23.027-1.774    c0.565-0.145,1.12-0.293,1.668-0.453l0.069,0.24c3.614,0,5.933,6.535,7.639,9.615c1.333,2.41,1.931,4.739,1.732,7.068    c-0.154,1.818-0.794,3.636-1.951,5.496c-2.351,3.779-6.951,6.098-9.818,9.595c-3.642,4.436-6.316,9.776-10.348,14.01    c-3.87,4.062-9.206,6.07-12.617,10.597C495.244,283.911,494.78,284.545,494.364,285.11z"
   id="path44" />
		<path
   fill="#DEB28A"
   d="M396.691,450.696c0.171,0.458,0.357,0.911,0.555,1.359c3.278,7.346,6.546,15.117,13.412,19.867    c6.205,4.296,14.19,5.874,20.343,10.313c6.722,4.852,6.316,13.23,7.078,21.829c0.624,6.993,1.668,19.211-1.481,24.963    c-2.996,5.459-9.504,6.199-14.526,9.201c-7.207,4.296-9.846,11.477-15.704,16.828c-4.92,4.499-16.193,7.17-16.359,15.171    c-0.075,3.807,6.711,12.144,9.009,14.99c3.583,4.424,11.77,7.388,14.232,12.152c4.127,7.98-4.082,11.242-7.132,16.388    c-0.501,0.837-0.863,1.722-1.013,2.687c-6.951,2.569-9.979,7.01-18.209,6.553c-4.164-0.229-14.645-6.69-17.495-2.459    c-2.793,4.144,6.354,12.965,7.853,17.011c2.383,6.396,5.617,12.011,4.387,18.902c-4.381-3.961-8.85-1.339-14.579,3.503    c-7.793,6.577-13.06,10.25-23.385,10.196c-16.775-0.085-26.425-2.819-41.611,5.396c-10.048,5.438-22.341,14.137-34.212,6.396    c-13.774-8.986-8.221-37.56-24.793-41.481c-2.458-15.514-13.422-25.523-28.114-27.874c-8.625-1.387-17.756-3.582-25.992-6.983    c-4.43-1.828-7.899-4.829-12.389-5.81c-2.857-0.624-6.071,0.318-8.971-0.183c-16.345-2.824-26.605-25.672-31.824-39.841    c-2.554-6.939-2.521-20.235-6.142-25.758c-1.631-2.489-7.847-3.935-10.074-6.104c-3.481-3.374-4.707-8.599-7.714-12.133    c-6.045-7.101-13.22-10.187-14.43-20.726c-0.853-7.425-0.976-15.117-1.599-22.352c-0.613-7.153-0.24-13.146-2.441-19.084    c4.238-2.229,3.555-9.407,5.064-13.73c2.895-8.295,9.579-13.631,18.944-12.811c7.447,0.65,13.642,6.364,19.212,10.806    c6.547,5.225,9.313,6.008,17.592,5.997c4.866,0,14.372,1.577,18.428-0.757c5.069-2.922,9.846-13.161,13.55-18.253    c4.92-6.754,10.027-14.158,14.574-20.73c4.126-5.971,11.317-13.209,13.508-20.085c31.381-10.513,69.389-11.931,103.046-8.136    c5.213,0.586,17.314,5.726,22.347,2.469c0.153,6.77,10.08,20.347,14.435,24.733c3.497,3.523,7.655,6.402,11.994,8.817    c7.713,4.307,19.995,7.431,24.323,14.979C394.484,434.064,393.823,443.073,396.691,450.696z"
   id="path46" />
		<path
   fill="#DEB28A"
   d="M339.633,378.386c-5.032,3.257-17.134-1.883-22.347-2.469c-33.658-3.795-71.665-2.377-103.046,8.136    c-2.191,6.876-9.382,14.114-13.508,20.085c-4.547,6.572-9.654,13.977-14.574,20.73c-3.705,5.092-8.48,15.331-13.55,18.252    c-4.058,2.335-13.562,0.758-18.428,0.758c-8.278,0.011-11.045-0.772-17.592-5.997c-5.57-4.44-11.765-10.154-19.212-10.806    c-9.365-0.82-16.05,4.516-18.944,12.811c-1.51,4.322-0.826,11.503-5.064,13.73c-0.411-1.113-0.917-2.229-1.535-3.348    c-4.003-7.233-9.803-13.699-13.209-21.541c-4.43-10.188-8.406-12.313-17.394-18.429c-7.144-4.861-11.716-12.922-12.591-21.771    c-1.695-17.106,19.057-30.812,1.481-43.754c-11.312-8.326-36.291-27.25-9.478-31.228c15.213-2.255,32.495,2.958,35.177-17.474    c0.485-3.694-1.194-8.668,0.144-12.149c0.73-1.913,4.238-4.222,5.476-6.156c2.644-4.143,3.235-10.518,6.002-14.691    c2.33-3.513,5.336-3.401,7.612-5.454c15.432-13.923,6.375-33.657,7.798-51.286c2.889-0.416,5.832-0.697,8.87-0.725    c13.124-0.128,26.242-0.528,39.36-0.704c4.526-0.063,9.755-0.858,14.153,0.475c3.278,0.997,5.491,4.158,8.913,5.042    c12.26,3.178,29.713-0.016,42.41-0.016c16.487,0,36.558-3.055,52.592,0.181c10.533,2.127,19.601,7.09,29.211,11.563    c-0.65,0.485-0.927,1.333-1.599,1.829c-0.769,0.564-1.381,1.065-1.92,1.935c-1.022,1.631-1.429,3.557-1.609,5.448    c-0.368,3.891,0.347,7.985-0.757,11.786c-1.813,6.231-7.964,12.517-8.614,19.249c-0.432,4.521,3.683,14.354,7.756,15.832    c8.076,2.926,8.098-7.356,15.192-6.157c-0.709,4.206,1.828,5.725,5.677,5.49c4.947-0.298,3.609-5.4,6.563-6.231    c7.744-2.169,8.736,11.248,14.227,14.229c8.508,4.622,9.121,1.711,12.751,12.037c0.464,1.315,0.977,2.654,1.515,4.009    c2.047,5.176,4.45,10.549,5.938,15.768c1.898,6.637,0.688,15.582,1.386,22.581c0.977,9.803-1.061,11.248-6.994,18.77    c-1.902,2.403-5.432,5.603-6.438,8.4c-1.231,3.434,1.609,8.715-1.525,11.066C339.819,378.263,339.728,378.327,339.633,378.386z"
   id="path48" />
		<path
   fill="#DEB28A"
   d="M281.203,81.806c-1.551,6.481-4.359,12.261-4.696,19.067c-0.324,6.775,0.097,12.692-1.674,18.893    c-10.005,2.937-5.965-15.875-5.521-20.448c0.309-3.134-0.778-6.434-1.167-9.526c-0.31-2.446-0.863-6.583,1.834-7.975    c0.682-0.347,1.471-0.426,2.223-0.405c0.624,0.017,1.21,0.288,1.807,0.411c0.821,0.165,1.174-0.016,1.92-0.181    C277.632,81.273,279.498,81.662,281.203,81.806z"
   id="path50" />
	</g>
	<g
   id="g114"
   transform="translate(1.3586347)">
		<path
   fill="none"
   stroke="#1a1a1a"
   stroke-width="0.5"
   d="m 518.933,151.882 c 0.005,0 0.005,0 0.01,0 5,0.555 16.264,-8.027 22.438,-10.795 7.323,-3.277 10.575,-10.053 18.971,-9.835 9.115,0.246 28.765,10.667 35.155,16.696 2.916,2.75 13.604,16.445 12.825,20.885 -1.033,5.944 -12.563,7.618 -17.777,9.419 -12.255,4.232 -22.347,19.745 -29.451,30.343 -5.72,8.518 -6.296,9.291 -15.944,10.612 -9.024,1.231 -15.875,5.012 -24.079,7.361 -0.549,0.16 -1.104,0.31 -1.668,0.453 -6.312,1.609 -16.456,2.426 -23.027,1.774 -7.617,-0.752 -12.053,-6.146 -17.415,-11.371 -4.813,-4.686 -8.321,-10.452 -15.348,-12.654 -8.608,-2.692 -12.355,3.177 -20.783,3.241 -15.438,0.111 -32.854,-2.538 -47.235,3.017 -7.079,2.729 -11.851,4.185 -19.771,4.179 -7.596,-0.011 -14.761,2.873 -21.647,2.517 -0.188,3.337 -0.053,6.817 -0.24,10.154 -13.806,0.698 -33.242,3.146 -46.057,-1.657 -3.278,-1.231 -6.43,-2.623 -9.526,-4.067 -9.611,-4.473 -18.678,-9.435 -29.211,-11.563 -16.035,-3.235 -36.104,-0.181 -52.592,-0.181 -12.697,0 -30.15,3.193 -42.41,0.017 -3.422,-0.886 -5.635,-4.047 -8.913,-5.042 -4.397,-1.333 -9.627,-0.539 -14.153,-0.476 -13.119,0.176 -26.237,0.576 -39.361,0.704 -3.037,0.027 -5.98,0.309 -8.869,0.725 -10.405,1.52 -20.118,4.867 -30.987,4.867 -12.811,0.005 -23.306,1.109 -34.42,6.185 -4.909,2.238 -9.228,5.917 -14.355,7.451 -5.688,1.695 -12.223,0.545 -17.628,3.156"
   id="path54" />
		<path
   fill="none"
   stroke="#1a1a1a"
   stroke-width="0.5"
   d="m 601.927,4.128 c -5.208,5.528 -6.669,8.301 -14.175,12.389 -9.521,5.191 -15.57,5.187 -26.402,5.197 -8.269,0.011 -11.313,-3.24 -18.566,-4.835 -6.925,-1.52 -16.077,0.458 -22.426,2.437 -16.524,5.155 -23.007,22.591 -33.365,35.336 -6.642,8.172 -16.7,6.808 -27.105,10.479 -8.019,2.831 -15.79,4.829 -23.312,9.333 -2.1,1.259 -2.152,3.001 -5.133,4.015 -2.232,0.762 -6.12,0 -8.497,0.123 -2.66,12.452 -21.882,15.267 -18.385,30.145 14.094,0.714 28.002,4.952 39.031,12.933 5.043,3.646 11.141,8.272 16.813,11.173 2.708,1.386 6.359,1.908 8.795,3.14 4.052,2.036 5.496,5.769 8.779,7.921 5.416,3.555 12.698,3.8 19.207,4.131 3.998,0.208 8.033,-0.191 12.037,0 2.147,0.103 4.707,-0.453 6.796,0.117 0.075,0.021 0.144,0.043 0.219,0.064 1.119,0.352 3.156,3.656 2.708,3.656"
   id="path56" />
		<path
   fill="none"
   stroke="#666666"
   stroke-width="5"
   d="m 103.006,204.81 c -0.059,0.506 -0.111,1.018 -0.154,1.529 -1.423,17.629 7.634,37.362 -7.798,51.286 -2.276,2.054 -5.283,1.94 -7.612,5.454 -2.768,4.174 -3.358,10.549 -6.002,14.691 -1.237,1.935 -4.744,4.243 -5.476,6.157 -1.338,3.48 0.342,8.455 -0.144,12.148 -2.682,20.433 -19.963,15.219 -35.177,17.475 -26.813,3.977 -1.834,22.899 9.478,31.227 17.575,12.943 -3.177,26.648 -1.481,43.754 0.875,8.849 5.447,16.909 12.591,21.771 8.988,6.113 12.964,8.24 17.394,18.428 3.406,7.842 9.206,14.308 13.209,21.541 0.618,1.119 1.125,2.233 1.535,3.348 2.202,5.938 1.828,11.931 2.441,19.084 0.624,7.233 0.746,14.927 1.599,22.352 1.21,10.539 8.385,13.625 14.43,20.726 3.007,3.534 4.232,8.76 7.714,12.133 2.228,2.171 8.442,3.614 10.074,6.104 3.62,5.522 3.587,18.817 6.142,25.758 5.219,14.169 15.479,37.017 31.823,39.841 2.9,0.501 6.114,-0.441 8.972,0.183 4.488,0.979 7.958,3.98 12.389,5.81 8.235,3.401 17.367,5.599 25.992,6.983 14.691,2.351 25.656,12.36 28.114,27.874 16.572,3.923 11.019,32.495 24.793,41.481 11.871,7.74 24.164,-0.959 34.212,-6.396 15.187,-8.215 24.835,-5.479 41.611,-5.396 10.325,0.055 15.592,-3.619 23.385,-10.196 5.729,-4.842 10.198,-7.464 14.579,-3.502 1.21,1.093 2.415,2.69 3.636,4.883 5.208,9.35 4.872,20.74 5.555,31.099 0.938,14.275 8.562,15.106 19.229,23.273 1.508,1.155 4.567,5.281 6.375,7.021 2.17,2.095 5.858,5.219 7.015,7.751 1.967,4.308 1.407,9.589 3.801,14.265 2.479,4.841 5.795,9.531 8.785,14.218 4.436,6.93 9.03,15.054 17.165,16.731 10.646,2.201 12.244,-2.596 19.361,-6.999 7.116,-4.396 14.723,0.442 22.309,-2.537 3.594,-1.413 3.839,-5.416 7.122,-7.271 4.622,-2.612 7.187,-1.264 12.148,0.197 0.506,0.148 1.013,0.299 1.52,0.441 8.358,2.415 16.631,4.467 24.467,7.356 7.165,2.644 10.454,6.237 14.691,7.842 3.146,1.199 6.813,1.3 12.97,-0.891 7.42,-2.635 12.512,-3.434 20.672,-2.182 17.458,2.688 35.491,1.601 53.253,1.644 8.141,0.021 14.941,-1.658 21.125,-7.097 8.104,-7.127 3.412,-13.454 5.599,-22.488 2.095,-8.652 10.469,-13.956 15.634,-20.386 5.363,-6.679 9.904,-10.538 16.27,-16.609 8.477,-8.092 11.322,-19.488 15.178,-30.283 1.844,-5.188 3.923,-10.234 6.972,-14.712 8.358,-12.287 23.258,-19.255 34.603,-28.125 12.899,-10.08 17.511,-22.586 23.277,-37.176 3.46,-8.765 1.626,-19.505 6.749,-27.74 1.931,-3.104 3.902,-4.963 5.911,-5.933 7.225,-3.492 14.964,4.461 23.184,7.303 6.914,2.388 14.879,0.059 22.134,1.141 15.159,2.266 29.818,7.825 45.832,5.41 12.19,-1.833 23.679,-23.236 33.178,-8.992 4.371,6.563 3.156,11.253 11.578,12.996 5.608,1.162 17.896,1.104 23.141,-0.741 -1.685,-7.275 -6.354,-8.993 -6.333,-17.606 0.021,-8.667 -0.074,-18.093 5.821,-24.648 5.501,-6.114 11.349,-9.861 14.163,-18.375 3.396,-10.24 -1.284,-13.374 -6.567,-21.738 -4.808,-7.617 -3.849,-13.769 -3.821,-23.229 0.031,-12.463 -3.556,-20.624 -8.816,-31.243 -7.602,-15.352 -9.733,-30.992 -16.189,-45.896 -5.395,-12.452 -8.177,-20.683 -4.099,-31.444 0.896,-2.361 2.121,-4.846 3.721,-7.527 3.577,-5.991 8.987,-11.743 15.391,-14.819 5.677,-2.729 13.821,-2.761 18.57,-7.591 5.88,-5.986 1.818,-13.055 4.195,-20.603 2.319,-7.352 8.193,-8.833 14.414,-12.757 14.254,-8.992 5.875,-17.133 6.573,-31.205 0.355,-7.128 -0.379,-16.189 1.54,-23.066 0.938,0 2.005,-0.218 2.959,-0.165 0.298,-4.424 3.043,-15.39 0.757,-19.803 -2.102,-4.067 -8.945,-6.002 -11.829,-9.915 -1.435,-1.946 -2.144,-3.715 -2.329,-5.373 -0.624,-5.539 4.516,-9.825 7.475,-15.368 4.563,-8.556 8.598,-17.101 16.241,-24.052 6.253,-5.684 11.604,-5.896 12.191,-15.214 0.597,-9.388 -7.261,-11.083 -7.191,-19.771 0.055,-7.245 5.641,-10.693 11.02,-14.611 9.926,-7.233 18.434,-14.323 28.357,-21.168 3.552,-2.451 8.259,-4.003 10.209,-7.383 0.772,-1.322 1.113,-2.932 0.8,-4.983 -0.287,-1.866 -1.52,-3.636 -3.192,-5.288 -3.012,-2.97 -7.438,-5.543 -10.24,-7.527 -21.728,-15.347 -48.584,-37.479 -75.567,-39.819 -7.483,-0.649 -15.384,0.037 -22.895,0.037 -5.564,0 -11.957,0.864 -17.469,0.021 -4.291,-0.661 -6.551,-2.777 -11.37,-2.42 -15.246,1.125 -20.955,20.384 -29.563,30.625 -14.104,16.765 -34.5,17.81 -55.391,18.949 -12.794,0.699 -24.137,8.663 -35.764,4.18 -1.27,-0.49 -2.537,-1.13 -3.816,-1.94 -2.767,-1.759 -4.729,-3.641 -6.807,-5.208 -2.298,-1.731 -4.739,-3.082 -8.566,-3.449 -10.838,-1.033 -19.58,6.595 -30.241,7.219 -12.101,0.709 -18.881,-7.122 -30.561,-7.996 -10.357,-0.773 -16.578,7.66 -24.984,11.877 -13.614,6.828 -28.438,10.789 -43.583,10.432 -4.313,-0.101 -8.646,-0.554 -12.99,-1.386 -7.229,-1.391 -14.468,-0.709 -21.743,-1.914 -8.477,-1.407 -15.641,-7.351 -23.833,-9.59 -8.444,-2.309 -17.335,-1.002 -26.163,-1.423 -7.148,-0.348 -15.166,-1.951 -22.543,-0.843 -20.476,3.07 -13.264,20.103 -13.636,35.401 -0.155,6.215 -4.75,29.186 -12.282,27.676"
   id="path58" />
		<path
   fill="none"
   stroke="#666666"
   stroke-width="5"
   d="m 1101.645,712.531 c -16.413,0 -24.804,-0.512 -35.161,-13.551 -6.893,-8.684 -19.739,-13.23 -31.2,-14.436 -12.346,-1.295 -25.293,1.731 -37.58,0 -14.482,-2.042 -39.511,-19.521 -44.947,-33.583 -2.725,-7.036 -1.643,-15.693 0.176,-22.991 2.355,-9.467 3.65,-19.189 3.198,-29.132 -0.373,-8.15 -3.998,-13.406 -3.998,-22.233"
   id="path60" />
		<path
   fill="none"
   stroke="#666666"
   stroke-width="5"
   d="m 554.756,774.893 c -6.487,-1.066 -16.009,16.653 -21.413,21.008 -4.292,3.46 -7.916,6.558 -11.328,10.978 -2.458,3.177 -3.961,8.678 -5.977,11.48 -0.395,0.555 -0.815,1.008 -1.264,1.313"
   id="path62" />
		<path
   fill="none"
   stroke="#666666"
   stroke-width="5"
   d="m 1055.273,84.881 c 0.262,0.06 0.533,0.107 0.821,0.134 1.731,0.187 3.875,-0.145 5.437,-0.271 4.218,-11.68 10.502,-17.729 18.552,-26.27 8.789,-9.329 9.482,-19.058 23.935,-19.169 0.011,0 0.021,0 0.032,0"
   id="path64" />
		<path
   fill="none"
   stroke="#666666"
   stroke-width="5"
   d="m 810.161,3.989 c 0,0.005 -0.006,0.005 -0.006,0.011 -1.061,1.546 -0.469,1.894 -2.249,2.805 -1.312,0.672 -2.469,1.344 -3.593,2.323 -2.415,2.102 -4.313,4.771 -5.88,7.543 -2.884,5.097 -5.134,11.137 -5.416,17.037 -0.565,11.946 6.717,23.78 4.659,35.844 -4.883,2.01 -8.417,7.793 -10.465,12.361 -0.213,0.469 -0.404,0.927 -0.586,1.37"
   id="path66" />
		<path
   fill="none"
   stroke="#666666"
   stroke-width="5"
   d="m 1058.472,95.276 c 0.01,0.005 0.011,0.005 0.017,0.011 12.494,8.358 10.911,24.958 16.775,38.412 3.417,7.841 14.563,32.378 23.865,32.613 0.298,-0.891 0.181,-2.036 0.238,-2.958 0.283,0.038 1.979,0.016 2.159,-0.234 0.177,-0.688 -0.262,-1.674 0.122,-2.292 0.405,-0.645 1.567,-0.735 2.229,-0.741"
   id="path68" />
		<path
   fill="none"
   stroke="#808080"
   stroke-width="3"
   d="m 298.421,222.103 c -0.021,0.016 -0.036,0.025 -0.059,0.053 -0.65,0.485 -0.927,1.333 -1.599,1.829 -0.769,0.564 -1.381,1.065 -1.919,1.935 -1.023,1.631 -1.43,3.557 -1.61,5.448 -0.368,3.891 0.347,7.985 -0.757,11.786 -1.813,6.232 -7.964,12.517 -8.614,19.249 -0.432,4.521 3.683,14.354 7.756,15.832 8.076,2.926 8.098,-7.356 15.192,-6.157 -0.709,4.206 1.828,5.726 5.677,5.49 4.947,-0.298 3.609,-5.4 6.563,-6.231 7.745,-2.169 8.736,11.248 14.227,14.229 8.508,4.622 9.121,1.711 12.751,12.037 0.464,1.315 0.977,2.654 1.514,4.009 2.048,5.176 4.451,10.549 5.938,15.768 1.898,6.638 0.688,15.582 1.386,22.581 0.977,9.804 -1.061,11.248 -6.994,18.77 -1.902,2.403 -5.432,5.603 -6.438,8.4 -1.231,3.434 1.61,8.716 -1.525,11.066 -0.09,0.069 -0.181,0.133 -0.276,0.192 -5.032,3.257 -17.133,-1.883 -22.347,-2.469 -33.658,-3.795 -71.665,-2.377 -103.046,8.136 -2.191,6.876 -9.382,14.114 -13.508,20.085 -4.547,6.572 -9.654,13.977 -14.574,20.73 -3.705,5.092 -8.48,15.331 -13.55,18.252 -4.058,2.336 -13.562,0.758 -18.428,0.758 -8.278,0.011 -11.045,-0.772 -17.592,-5.997 -5.57,-4.44 -11.765,-10.154 -19.212,-10.806 -9.365,-0.82 -16.05,4.516 -18.944,12.811 -1.51,4.322 -0.826,11.503 -5.064,13.73 -0.656,0.353 -1.434,0.576 -2.355,0.655"
   id="path70" />
		<path
   fill="none"
   stroke="#808080"
   stroke-width="3"
   d="m 381.249,658.158 c 0.16,-0.574 0.293,-1.146 0.39,-1.705 1.23,-6.893 -2.004,-12.506 -4.388,-18.902 -1.497,-4.046 -10.646,-12.867 -7.852,-17.011 2.852,-4.231 13.332,2.229 17.495,2.458 8.229,0.458 11.258,-3.981 18.209,-6.552 0.149,-0.965 0.512,-1.85 1.013,-2.687 3.049,-5.146 11.258,-8.406 7.133,-16.388 -2.464,-4.766 -10.65,-7.729 -14.233,-12.152 -2.297,-2.848 -9.083,-11.185 -9.009,-14.99 0.166,-8.001 11.438,-10.672 16.359,-15.171 5.858,-5.353 8.497,-12.532 15.704,-16.828 5.021,-3.002 11.53,-3.742 14.526,-9.201 3.149,-5.752 2.104,-17.97 1.481,-24.963 -0.762,-8.599 -0.356,-16.979 -7.079,-21.829 -6.15,-4.44 -14.137,-6.019 -20.342,-10.313 -6.865,-4.75 -10.133,-12.521 -13.412,-19.867 -0.196,-0.448 -0.384,-0.901 -0.555,-1.359 -2.868,-7.623 -2.207,-16.632 -6.306,-23.78 -4.328,-7.548 -16.61,-10.672 -24.323,-14.979 -4.339,-2.415 -8.497,-5.294 -11.994,-8.817 -4.354,-4.387 -14.281,-17.964 -14.435,-24.734 -0.005,-0.304 0.01,-0.597 0.042,-0.868"
   id="path72" />
		<path
   fill="none"
   stroke="#808080"
   stroke-width="1.5"
   d="m 347.672,301.561 c 4.062,-0.31 5.805,-4.223 9.595,-4.797 4.771,-0.721 7.767,1.876 11.072,3.891 -1.002,-7.67 8.821,-2.255 13.556,-3.833 1.749,-0.581 3.795,-3.977 6.594,-4.856 3.332,-1.044 5.997,-0.352 9.552,0 6.61,0.656 12.197,1.37 18.392,3.802 5.869,2.308 10.987,7.713 17.453,7.531 3.966,7.106 21.344,-1.85 21.845,-8.812 11.056,-0.586 18.391,0.437 28.646,-2.718 7.074,-2.175 6.552,-1.919 9.99,-6.658 0.416,-0.565 0.879,-1.199 1.423,-1.919 3.411,-4.526 8.748,-6.535 12.617,-10.597 4.03,-4.233 6.706,-9.574 10.348,-14.01 2.867,-3.497 7.468,-5.815 9.818,-9.595 1.157,-1.86 1.796,-3.678 1.951,-5.496 0.197,-2.33 -0.399,-4.659 -1.731,-7.067 -1.706,-3.081 -4.024,-9.616 -7.64,-9.616"
   id="path74" />
		<path
   fill="none"
   stroke="#808080"
   stroke-width="1.5"
   d="m 725.048,257.46 c -0.145,-0.479 -0.277,-0.869 -0.41,-1.184 -0.086,-0.197 -0.166,-0.362 -0.251,-0.501 -0.245,-0.41 -0.496,-0.603 -0.778,-0.65 -0.25,-0.042 -0.533,0.027 -0.857,0.155 -0.593,0.224 -1.338,0.624 -2.366,0.853 -2.39,0.533 -4.494,-0.56 -6.248,-2.127 -2.964,-2.654 -4.28,-6.742 -7.468,-9.217 -0.672,-0.517 -1.313,-0.954 -1.931,-1.316 -7.213,-4.253 -11.099,1.541 -19.659,3.758 -7.942,2.058 -13.854,0.352 -21.803,3.753 -1.736,0.741 -2.682,2.244 -4.152,3.017 -0.617,0.331 -1.338,0.528 -2.25,0.479 -2.109,-0.112 -2.223,-4.174 -3.954,-4.771 -1.669,-0.576 -3.679,0.154 -5.416,-0.123 -3.178,-0.501 -6.6,0.513 -9.771,0 -4.163,-0.666 -6.056,-2.724 -9.596,-3.815 -7.591,-2.34 -17.319,-0.981 -25.405,-0.981 -22.671,0 -50.146,-8.981 -72.209,-1.295 -0.453,0.16 -0.906,0.325 -1.354,0.496"
   id="path76" />
		<path
   fill="none"
   stroke="#808080"
   stroke-width="3"
   d="m 405.236,613.386 c 0.288,0.128 0.581,0.256 0.879,0.373 14.126,5.783 32.886,1.386 45.534,-6.553 13.449,-8.438 22.148,-16.216 39.02,-15.287 0.325,5.598 -1.061,15.479 2.5,19.889 4.11,5.086 10.277,3.22 14.212,9.596 6.056,9.829 6.321,25.176 16.993,31.957 5.966,3.79 12.592,5.421 18.412,9.579 6.695,4.775 13.838,8.513 20.784,12.81 2.788,1.728 7.916,4.653 9.841,8.459 0.688,1.339 0.971,2.788 0.613,4.334 -1.066,4.611 -10.875,11.333 -13.892,15.593 -7.688,10.863 -14.927,21.572 -21.947,33.198 -5.14,8.497 -15.597,14.691 -22.532,22.191 -0.304,0.32 -0.592,0.646 -0.88,0.976"
   id="path78" />
		<path
   fill="none"
   stroke="#808080"
   stroke-width="3"
   d="m 717.861,677.348 c -0.778,-0.288 -1.563,-0.592 -2.351,-0.917 -12.31,-5.016 -25.07,-13.987 -36.648,-21.663 -6.893,-4.568 -12.44,-3.716 -20.752,-3.801 -3.668,-0.043 -7.645,0.688 -10.65,-1.601 -3.796,-2.884 -2.03,-5.059 -4.157,-9.237 -1.956,-3.844 -5.613,-7.793 -9.101,-11.563 -1.828,-1.967 -3.607,-3.892 -5.068,-5.726 -4.739,-5.929 -9.063,-10.88 -14.975,-16.029 -5.592,-4.877 -8.565,-9.179 -12.367,-15.016 -3.561,-5.465 -8.636,-9.105 -12.479,-14.414 -1.552,-2.145 -2.879,-3.523 -3.278,-6.217 6.242,-5.025 6.007,-9.382 7.101,-16.945 1.321,-9.163 8.198,-10.341 12.768,-17.575 8.576,-13.604 -10.356,-24.286 -9.574,-39.195 0.017,-0.271 0.026,-0.539 0.043,-0.8 0.57,-9.984 1.524,-11.019 11.771,-8.929 7.756,1.578 14.206,3.331 22.396,3.331 5.66,0 14.855,1.817 20.164,0.038 8.146,-2.729 9.691,-11.771 14.59,-17.646 4.933,-5.917 12.287,-8.844 17.438,-14.402 3.321,-3.594 4.42,-8.167 6.809,-9.995 1.545,-1.185 3.629,-1.222 7.206,0.891 11.94,7.063 9.318,19.397 9.89,30.938 0.389,7.964 1.551,9.78 7.255,14.194 1.791,1.393 3.054,2.848 4.936,4.622 1.658,1.567 3.631,5.522 5.599,7.212 4.162,3.582 12.201,3.557 15.054,8.897 2.867,5.378 -0.453,13.049 2.138,18.604 5.396,11.541 22.389,6.29 32.842,7.777 14.445,2.058 18.477,6.114 18.571,20.561 0,0.085 0,0.177 0,0.267"
   id="path80" />
		<path
   fill="none"
   stroke="#808080"
   stroke-width="1.5"
   d="m 493.986,284.769 c 0.123,0.123 0.25,0.234 0.378,0.341 2.244,1.935 5.176,2.388 6.818,4.457 2.228,2.809 3.513,6.668 5.378,9.595 4.035,6.327 8.662,13.306 13.769,18.593 5.513,5.709 10.556,8.455 15.213,15.544 5.192,7.905 2.788,12.234 0.021,20.849 -1.631,5.08 -0.64,3.507 -3.998,6.578 -2.02,1.839 -4.579,1.226 -6.594,4.601 -1.701,2.853 -0.539,5.874 -1.541,8.993 -1.313,4.094 -5.069,7.852 -6.876,11.818 -3.412,7.468 -0.784,12.383 -1.781,20.166 -0.784,6.136 -5.512,11.15 -8.971,15.949 -2.58,3.576 -3.508,7.127 -8.481,7.377 -2.713,0.134 -5.928,9.137 -6.184,13.349 -0.011,0.191 -0.017,0.367 -0.017,0.533 0,0.56 0.075,1.002 0.225,1.272 0.261,-0.048 0.698,0.097 0.975,0.092 0.043,0.148 -0.032,0.665 0.043,0.757"
   id="path82" />
		<path
   fill="none"
   stroke="#808080"
   stroke-width="3"
   d="m 570.746,686.144 c 0.812,-0.698 1.718,-1.327 2.666,-1.936 2.512,-1.604 5.288,-3.033 7.148,-5.063 3.246,-3.545 1.759,-6.664 3.896,-9.611 2.617,-3.608 8.608,-4.425 11.937,-7.238 2.942,-2.5 3.465,-4.397 5.575,-8.107 3.764,-6.637 10.49,-10.001 15.39,-16.632 4.851,-6.567 6.199,-9.92 15.752,-8.978"
   id="path84" />
		<path
   fill="none"
   stroke="#808080"
   stroke-width="3"
   d="m 489.188,441.484 c 0.475,0.496 0.965,1.008 1.466,1.53 0.155,0.165 0.314,0.33 0.469,0.496 1.087,1.146 2.159,2.317 3.001,3.427 15.758,0.923 24.153,1.439 35.668,10.71 8.485,6.828 24.941,14.147 34.713,6.247 3.496,-2.83 6.871,-13.343 12.676,-12.053 7.389,1.637 5.234,14.146 3.736,18.423 -1.625,4.653 -8.055,13.662 -4.456,19.228 4.071,6.296 15.561,-0.805 16.813,7.021 1.029,0.202 1.994,0.074 3.055,0.139"
   id="path86" />
		<path
   fill="none"
   stroke="#808080"
   stroke-width="1.5"
   d="m 688.281,448.676 c -0.005,0 -0.011,0 -0.016,0 -10.405,-0.203 -23.945,-15.992 -31.189,-22.564 -5.741,-5.214 -12.563,-21.856 -22.245,-19.926 0.106,-0.395 0.245,-0.773 0.416,-1.142 2.5,-5.517 11.168,-8.337 13.051,-14.695 2.121,-7.144 -0.272,-18.172 -1.596,-24.777 -1.295,-6.477 -2.066,-10.869 -4.834,-15.72 -0.886,-1.557 -1.979,-3.161 -3.357,-4.894 -5.256,-6.604 -5.789,-11.028 -7.122,-19.292 -11.601,-0.624 -15.064,-3.555 -24.602,-9.051 1.094,-0.602 3.315,-3.614 4.639,-4.446 -1.242,-2.733 -2.617,-5.814 -3.358,-9.029 -0.176,-0.747 -0.31,-1.493 -0.405,-2.244 4.904,-2.996 7.202,-8.694 12.66,-11.909 6.999,-4.126 9.591,-5.699 14.563,-12.212 6.05,-7.921 20.678,-12.82 24.238,-22.772 0.144,-0.395 0.267,-0.8 0.372,-1.215"
   id="path88" />
		<path
   fill="none"
   stroke="#808080"
   stroke-width="3"
   d="m 721.859,254.385 c 0.176,0.313 0.479,0.612 0.89,0.896 0.49,0.352 1.131,0.677 1.889,0.997 4.982,2.101 14.909,3.716 18.57,6.306 2.996,2.127 6.713,4.873 9.078,7.793 2.379,2.928 2.885,7.079 6.217,8.935 0.549,10.139 -2.891,19.109 3.337,27.048 6.321,8.064 12.554,8.236 21.589,11.194 6.808,2.228 8.522,5.634 7.531,9.61 -2.164,8.705 -17.313,20.134 -20.484,27.885 -9.366,-1.913 -11.61,8.246 -15.214,14.479 -5.064,8.753 -6.242,11.829 -6.216,22.383 0.017,7.159 -1.705,13.385 -6.375,18.37 -6.114,6.524 -14.819,3.145 -20.693,11.114 -4.633,6.285 -3.913,5.891 -11.595,7.617 -5.069,1.146 -9.104,1.893 -13.312,5.299 -3.977,3.23 -5.318,11.594 -8.806,14.366 -0.048,0.037 -0.097,0.073 -0.149,0.111 -0.438,0.324 -0.917,0.561 -1.434,0.688"
   id="path90" />
		<path
   fill="none"
   stroke="#808080"
   stroke-width="1.5"
   d="m 704.268,243.99 c -9.376,7.772 -18.816,13.924 -26.221,24.404 -2.74,3.875 -7.079,8.715 -8.338,13.161 -1.925,6.808 2.271,13.257 3.396,20.603 0.592,3.859 2.352,13.566 0,16.813 -3.018,4.151 -13.161,6.082 -17.447,9.813 -6.013,5.245 -14.292,12.863 -13.79,21.066 0.005,0.16 0.021,0.319 0.037,0.479"
   id="path92" />
		<path
   fill="none"
   stroke="#808080"
   stroke-width="1.5"
   d="m 607.522,303.16 c -7.836,2.239 -10.629,11.024 -17.591,14.394 -4.382,2.115 -7.745,1.044 -10.171,6.577 -2.005,4.574 -0.428,8.918 -0.203,13.589 0.251,5.229 0.55,11.193 -1.636,15.826 -1.761,3.731 -4.884,4.579 -7.042,7.98 -4.969,7.836 1.065,17.202 4.798,23.049 2.414,1.829 2.457,1.472 3.182,4.835 17.442,0.736 35.107,-0.661 52.528,0.225 0.356,6.657 0.453,9.493 3.32,15.069"
   id="path94" />
		<path
   fill="none"
   stroke="#808080"
   stroke-width="3"
   d="m 752.243,238.398 c 0.354,0.054 0.704,0.091 1.066,0.112 10.219,0.671 23.594,-10.14 32.357,-13.887 9.014,-3.854 19.493,0.965 29.69,-0.182 1.972,-0.224 3.929,-0.666 5.863,-1.439 5.965,-2.377 8.764,-5.427 15.955,-5.438 7.964,-0.011 15.672,2.463 23.807,2.44 13.017,-0.036 24.872,1.498 36.658,1.718 -0.277,1.571 0.597,3.811 0.239,5.356 5.16,-0.276 7.304,-10.592 13.514,-13.272 6.21,-2.677 14.228,-2.047 20.891,-3.396 8.269,-1.674 16.131,-1.594 24.645,-1.6 8.631,-0.011 15.177,4.435 23.258,4.041 0.239,-0.005 0.484,-0.021 0.729,-0.043"
   id="path96" />
		<path
   fill="none"
   stroke="#808080"
   stroke-width="3"
   d="m 789.024,327.147 c 0.646,0 1.29,0.005 1.936,0.016 13.321,0.225 26.482,2.825 37.282,10.396 10.155,7.115 6.903,25.971 19.147,27.964 15.454,2.521 20.938,-12.287 31.206,4.775 3.257,5.416 4.627,11.43 11.15,13.455 7.725,2.404 12.868,-0.309 17.612,-4.652 6.02,-5.519 11.445,-9.895 18.865,-13.423 0.105,-0.054 0.213,-0.106 0.318,-0.154"
   id="path98" />
		<path
   fill="none"
   stroke="#808080"
   stroke-width="3"
   d="m 797.815,88.08 c 0.011,0.31 0.016,0.641 0.021,0.98 0.074,4.387 -0.148,10.98 2.341,14.249 1.466,1.924 4.689,0.256 6.608,2.28 2.422,2.549 3.039,6.265 3.327,9.634 0.111,1.241 0.794,4.392 0.225,5.489 -0.251,0.476 -0.796,0.806 -1.43,1.029"
   id="path100" />
		<path
   fill="none"
   stroke="#1a1a1a"
   stroke-width="0.5"
   d="m 281.203,81.806 c -1.706,-0.145 -3.571,-0.533 -5.276,-0.165 -0.746,0.165 -1.099,0.346 -1.92,0.181 -0.597,-0.123 -1.184,-0.395 -1.807,-0.411 -0.751,-0.021 -1.541,0.06 -2.223,0.405 -2.697,1.391 -2.144,5.528 -1.834,7.975 0.389,3.092 1.477,6.393 1.167,9.526 -0.442,4.574 -4.483,23.385 5.521,20.448 1.771,-6.2 1.35,-12.117 1.674,-18.893 0.339,-6.806 3.147,-12.584 4.698,-19.066 z"
   id="path102" />
		<polygon
   fill="none"
   stroke="#000000"
   stroke-width="8"
   points="1104.017,818.359 516.039,818.359 4,818.359 4,227.998 4,4 601.927,4 810.155,4 1104.017,4 1104.017,39.305 1104.017,160.086 "
   id="polygon104" />
		<path
   fill="none"
   stroke="#808080"
   stroke-width="3"
   d="m 491.3,442.967 c -0.054,0.005 -0.106,0.005 -0.16,0.011 -0.166,0.011 -0.325,0.021 -0.485,0.037 -2.255,0.176 -4.439,0.484 -6.817,0.484 -3.812,0.006 -6.131,-1.529 -9.318,-3.508 -2.458,-1.53 -4.568,-3.604 -7.452,-3.955 -2.703,-0.331 -6.167,-0.294 -8.87,0.06 -2.232,0.293 -4.365,1.204 -6.589,1.557 -4.339,0.688 -8.582,0.538 -12.969,0.783 -4.787,0.267 -6.29,4.323 -10.133,6.461 -7.31,4.063 -15.513,5.148 -23.637,5.517 -2.633,0.123 -5.437,0.268 -8.177,0.283 -0.181,0 -0.361,0 -0.543,0"
   id="path106" />
		<path
   fill="none"
   stroke="#808080"
   stroke-width="3"
   d="m 649.267,100.394 c 0.032,8.064 2.719,13.929 3.198,21.808 0.459,7.532 0.271,15.347 0.624,22.768 0.378,8.129 0.649,13.172 3.353,19.989 2.495,6.302 1.621,12.735 3.001,20.012 0.778,4.089 2.628,17.921 5.177,20.8 4.077,4.604 14.286,2.563 19.83,2.563 6.583,0 13.429,-0.549 19.984,0 8.571,0.721 15.544,5.331 23.188,7.953 11.084,3.807 20.107,12.063 26.328,21.824 -0.208,0.144 -0.416,0.277 -0.64,0.4 -5.389,3.08 -14.616,1.033 -20.325,4.808 -2.452,1.615 -3.986,4.179 -5.688,6.493 -0.794,1.082 -4.094,3.923 -3.688,5.313 0.08,0.288 0.32,0.518 0.778,0.65 0.117,0.032 0.251,0.063 0.395,0.085"
   id="path108" />
		<path
   fill="none"
   stroke="#808080"
   stroke-width="3"
   d="m 815.433,199.245 c 0.021,1.771 0.356,3.642 0.768,4.819 0.981,2.81 0.789,4.787 -0.176,7.506 -0.725,2.031 -0.33,4.525 -0.356,6.706 -0.021,1.935 -0.342,3.742 -0.356,5.693"
   id="path110" />
		<path
   fill="none"
   stroke="#1b71a2"
   stroke-width="3"
   d="m 808.908,121.743 c -0.532,-0.123 -1.07,-0.218 -1.614,-0.298 -4.078,-0.581 -6.237,0.757 -9.44,1.077 -10.976,1.077 -22.646,-0.064 -33.679,-0.064 -7.122,0 -14.233,-0.341 -21.354,0.012 -3.854,0.191 -7.746,0.501 -11.536,1.284 -3.641,0.758 -9.854,3.765 -12.895,5.992 -3.188,2.34 -4.137,6.52 -4.493,10.229 -0.837,8.62 1.519,17.245 3.166,25.619 1.93,9.855 3.875,14.696 15.192,16.854 8.565,1.637 15.319,0.661 23.027,-2.596 8.859,-3.742 7.549,-3.156 12.31,4.797 3.948,6.6 11.528,11.77 18.934,13.828 7.769,2.159 20.104,0.356 28.258,0.741 0.22,0.01 0.433,0.021 0.65,0.025 9.265,0.396 18.646,-0.025 27.917,-0.025 10.037,0 19.078,0.922 28.05,-3.022 8.107,-3.566 16.222,-6.653 23.982,-10.79 8.778,-4.68 28.183,-14.691 18.411,-27.985 -4.766,-6.472 -11.498,-1.216 -15.838,-10.16 -5.703,-11.755 -6.038,-14.591 -17.824,-19.824 -15.987,-7.095 -33.828,2.047 -51.762,0.613 -6.637,-0.529 -12.804,-4.842 -19.462,-6.307 z"
   id="path112" />
	</g>
<text
   xml:space="preserve"
   style="font-size:80px;font-family:Lemon;-inkscape-font-specification:Lemon;text-align:center;text-anchor:middle;fill:#deb28a;stroke:#000000;stroke-width:0"
   x="498.6189"
   y="429.32861"
   id="text431"><tspan
     sodipodi:role="line"
     id="tspan429"
     x="498.6189"
     y="429.32861"
     style="fill:#000000">Bursa</tspan></text></g>









<g
   id="g267">
	<path
   d="M803.682,714.345h4.879v12.397h0.12c0.64-1.04,1.319-1.999,1.96-2.919l7.039-9.479h6.078l-9.278,11.478l9.878,15.478   h-5.759l-7.639-12.357l-2.399,2.879v9.479h-4.879V714.345z"
   id="path253" />
	<path
   d="M843.678,735.462c0,2.319,0.08,4.239,0.16,5.839h-4.318l-0.24-2.959h-0.08c-0.84,1.399-2.76,3.398-6.239,3.398   c-3.56,0-6.799-2.119-6.799-8.479v-11.438h4.919v10.598c0,3.24,1.04,5.319,3.64,5.319c1.96,0,3.239-1.399,3.759-2.64   c0.16-0.439,0.28-0.959,0.28-1.52v-11.758h4.919V735.462z M831.081,718.785c-1.399,0-2.439-1.121-2.439-2.44   c0-1.399,1.08-2.479,2.52-2.479c1.32,0,2.359,1.04,2.359,2.479c0,1.319-1,2.44-2.399,2.44H831.081z M839.04,718.785   c-1.4,0-2.4-1.121-2.4-2.44c0-1.399,1.041-2.479,2.44-2.479s2.399,1.04,2.399,2.479c0,1.319-1,2.44-2.399,2.44H839.04z"
   id="path255" />
	<path
   d="M854.64,716.824v5h4.679v3.68h-4.679v8.598c0,2.359,0.64,3.6,2.52,3.6c0.92,0,1.359-0.08,1.919-0.24l0.08,3.76   c-0.719,0.28-1.999,0.52-3.559,0.52c-1.8,0-3.32-0.64-4.24-1.639c-1.039-1.121-1.52-2.88-1.52-5.439v-9.158h-2.799v-3.68h2.799   v-3.6L854.64,716.824z"
   id="path257" />
	<path
   d="M878.159,736.621c0,1.76,0.08,3.48,0.279,4.68h-4.439l-0.319-2.16h-0.12c-1.199,1.521-3.239,2.6-5.759,2.6   c-3.919,0-6.119-2.839-6.119-5.799c0-4.919,4.359-7.398,11.558-7.358v-0.319c0-1.28-0.52-3.4-3.959-3.4   c-1.92,0-3.92,0.6-5.239,1.439l-0.96-3.199c1.439-0.879,3.959-1.719,7.039-1.719c6.239,0,8.039,3.959,8.039,8.197V736.621z    M873.36,731.782c-3.48-0.08-6.799,0.681-6.799,3.64c0,1.92,1.239,2.799,2.799,2.799c1.959,0,3.399-1.279,3.84-2.679   c0.119-0.36,0.16-0.761,0.16-1.08V731.782z"
   id="path259" />
	<path
   d="M883.361,712.906h4.959v11.598h0.08c0.601-0.92,1.44-1.721,2.439-2.24c0.96-0.56,2.12-0.879,3.359-0.879   c3.319,0,6.799,2.199,6.799,8.438v11.479h-4.919v-10.918c0-2.84-1.04-4.959-3.76-4.959c-1.92,0-3.279,1.279-3.799,2.76   c-0.16,0.399-0.2,0.92-0.2,1.479v11.639h-4.959V712.906z"
   id="path261" />
	<path
   d="M908.68,721.824l3.52,10.438c0.4,1.2,0.8,2.68,1.08,3.8h0.12c0.319-1.12,0.68-2.56,1.04-3.839l3.039-10.398h5.279   l-4.879,13.277c-2.68,7.279-4.479,10.519-6.799,12.518c-1.92,1.721-3.92,2.36-5.16,2.52l-1.119-4.158   c0.84-0.2,1.879-0.641,2.879-1.36c0.92-0.6,2-1.76,2.68-3.079c0.2-0.36,0.32-0.641,0.32-0.88c0-0.2-0.04-0.479-0.279-0.96   l-7.119-17.877H908.68z"
   id="path263" />
	<path
   d="M940.479,736.621c0,1.76,0.08,3.48,0.279,4.68h-4.439L936,739.14h-0.12c-1.199,1.521-3.239,2.6-5.759,2.6   c-3.919,0-6.119-2.839-6.119-5.799c0-4.919,4.359-7.398,11.558-7.358v-0.319c0-1.28-0.52-3.4-3.959-3.4   c-1.92,0-3.92,0.6-5.239,1.439l-0.96-3.199c1.439-0.879,3.959-1.719,7.039-1.719c6.239,0,8.039,3.959,8.039,8.197V736.621z    M935.68,731.782c-3.48-0.08-6.799,0.681-6.799,3.64c0,1.92,1.239,2.799,2.799,2.799c1.959,0,3.399-1.279,3.84-2.679   c0.119-0.36,0.16-0.761,0.16-1.08V731.782z"
   id="path265" />
</g>
<g
   id="g283">
	<path
   d="M967.682,432.705c1.56-0.32,4.398-0.56,7.158-0.56c3.64,0,5.879,0.44,7.719,1.72c1.68,1,2.8,2.76,2.8,5.039   c0,2.479-1.56,4.76-4.479,5.839v0.08c2.84,0.72,5.439,2.96,5.439,6.679c0,2.4-1.04,4.279-2.6,5.559   c-1.92,1.68-5.079,2.52-9.998,2.52c-2.72,0-4.8-0.199-6.039-0.359V432.705z M972.561,443.344h2.52c3.399,0,5.319-1.6,5.319-3.88   c0-2.52-1.92-3.679-5.04-3.679c-1.439,0-2.279,0.08-2.799,0.199V443.344z M972.561,455.741c0.64,0.12,1.479,0.12,2.6,0.12   c3.159,0,5.959-1.199,5.959-4.52c0-3.119-2.72-4.398-6.119-4.398h-2.439V455.741z"
   id="path269" />
	<path
   d="M995.76,434.385c0,1.48-1.08,2.64-2.799,2.64c-1.641,0-2.721-1.159-2.721-2.64c0-1.52,1.121-2.68,2.76-2.68   C994.68,431.705,995.721,432.865,995.76,434.385z M990.522,459.301v-19.477h4.959v19.477H990.522z"
   id="path271" />
	<path
   d="M1000.761,430.906h4.959v28.395h-4.959V430.906z"
   id="path273" />
	<path
   d="M1014.52,450.942c0.119,3.519,2.879,5.039,5.999,5.039c2.279,0,3.919-0.319,5.399-0.88l0.719,3.399   c-1.68,0.68-3.998,1.239-6.799,1.239c-6.318,0-10.037-3.919-10.037-9.878c0-5.399,3.279-10.478,9.518-10.478   c6.359,0,8.398,5.198,8.398,9.478c0,0.92-0.08,1.64-0.16,2.08H1014.52z M1023.079,447.503c0.04-1.8-0.76-4.759-4.039-4.759   c-3.04,0-4.32,2.759-4.52,4.759H1023.079z"
   id="path275" />
	<path
   d="M1045.998,458.701c-1.04,0.479-3.079,1.039-5.519,1.039c-6.08,0-10.039-3.919-10.039-9.958c0-5.839,4-10.397,10.838-10.397   c1.801,0,3.641,0.399,4.76,0.92l-0.88,3.679c-0.8-0.36-1.96-0.76-3.72-0.76c-3.759,0-5.998,2.759-5.959,6.319   c0,3.999,2.6,6.278,5.959,6.278c1.721,0,2.92-0.36,3.88-0.76L1045.998,458.701z"
   id="path277" />
	<path
   d="M1054.88,434.385c0,1.48-1.08,2.64-2.801,2.64c-1.639,0-2.719-1.159-2.719-2.64c0-1.52,1.119-2.68,2.76-2.68   C1053.8,431.705,1054.839,432.865,1054.88,434.385z M1049.639,459.301v-19.477h4.959v19.477H1049.639z"
   id="path279" />
	<path
   d="M1064.799,448.383h0.08c0.479-0.76,1.04-1.6,1.56-2.279l4.719-6.279h5.92l-7.199,7.959l8.238,11.518h-6.039l-5.599-8.599   l-1.68,1.96v6.639h-4.919v-28.395h4.919V448.383z"
   id="path281" />
</g>
<g
   id="g299">
	<path
   d="M997.069,325.677c1.772-0.509,4.018-1.675,5.771-3.485c2.198-2.27,2.36-4.563,0.78-6.094   c-1.465-1.419-3.272-1.277-6.557,0.331c-4.238,2.075-7.908,2.472-10.693-0.228c-3.16-3.061-3.013-8.041,1.05-12.234   c2.031-2.097,3.995-3.203,5.485-3.707l2.008,3.617c-1.041,0.327-2.895,1.149-4.648,2.958c-2.17,2.24-1.909,4.385-0.789,5.471   c1.493,1.447,3.269,0.995,6.777-0.616c4.521-2.136,7.801-2.131,10.587,0.568c3.103,3.005,3.549,8.004-1.294,13.002   c-1.975,2.039-4.638,3.58-6.3,4.03L997.069,325.677z"
   id="path285" />
	<path
   d="M1022.632,300.268c1.265,1.225,2.556,2.364,3.557,3.054l-3.089,3.188l-1.774-1.273l-0.083,0.086   c0.256,1.92-0.388,4.135-2.141,5.945c-2.728,2.815-6.298,2.419-8.423,0.36c-3.533-3.423-2.28-8.279,2.759-13.422l-0.23-0.222   c-0.919-0.891-2.804-1.992-5.197,0.479c-1.335,1.378-2.296,3.231-2.611,4.764l-2.965-1.537c0.369-1.646,1.52-4.04,3.662-6.251   c4.342-4.481,8.437-3.018,11.481-0.068L1022.632,300.268z M1015.817,300.348c-2.478,2.442-4.242,5.356-2.116,7.415   c1.378,1.335,2.872,1.058,3.958-0.063c1.363-1.408,1.446-3.332,0.747-4.621c-0.175-0.338-0.436-0.645-0.665-0.867L1015.817,300.348   z"
   id="path287" />
	<path
   d="M1025.195,288.658l0.055-0.058c-0.212-0.873-0.425-1.86-0.552-2.706l-1.226-7.759l4.119-4.251l0.706,10.708l14.005,2.098   l-4.202,4.337l-10.071-1.962l0.239,2.57l4.768,4.619l-3.423,3.533l-20.394-19.758l3.423-3.533L1025.195,288.658z"
   id="path289" />
	<path
   d="M1051.244,270.737c1.264,1.225,2.555,2.363,3.556,3.055l-3.089,3.188l-1.773-1.273l-0.084,0.087   c0.257,1.919-0.386,4.135-2.14,5.944c-2.728,2.815-6.297,2.419-8.423,0.36c-3.532-3.423-2.28-8.279,2.757-13.421l-0.229-0.222   c-0.919-0.891-2.804-1.992-5.197,0.478c-1.335,1.378-2.296,3.232-2.61,4.764l-2.966-1.537c0.37-1.646,1.519-4.04,3.662-6.251   c4.343-4.481,8.438-3.019,11.482-0.069L1051.244,270.737z M1044.429,270.816c-2.479,2.444-4.243,5.357-2.117,7.416   c1.379,1.335,2.874,1.057,3.959-0.063c1.362-1.407,1.446-3.332,0.747-4.622c-0.175-0.337-0.435-0.644-0.664-0.867L1044.429,270.816   z"
   id="path291" />
	<path
   d="M1048.747,261.073c-1.896-1.837-3.274-3.115-4.621-4.254l2.978-3.074l2.782,2.473l0.111-0.114   c-1.314-2.61-0.733-5.221,0.714-6.715c0.335-0.345,0.558-0.518,0.894-0.75l3.332,3.229c-0.336,0.231-0.699,0.492-1.116,0.922   c-1.644,1.696-1.664,3.901-0.392,5.749c0.261,0.364,0.578,0.783,0.98,1.173l7.238,7.013l-3.422,3.532L1048.747,261.073z"
   id="path293" />
	<path
   d="M1056.899,243.634l9.945,4.736c1.142,0.546,2.481,1.29,3.48,1.868l0.084-0.086c-0.582-1.008-1.365-2.27-2.033-3.418   l-5.354-9.418l3.674-3.792l6.141,12.743c3.363,6.989,4.437,10.536,4.259,13.593c-0.101,2.576-1.032,4.457-1.781,5.459l-3.765-2.09   c0.44-0.742,0.848-1.794,1.026-3.014c0.21-1.078,0.127-2.661-0.348-4.067c-0.119-0.395-0.236-0.675-0.409-0.842   c-0.143-0.139-0.371-0.305-0.884-0.467l-17.792-7.326L1056.899,243.634z"
   id="path295" />
	<path
   d="M1089.653,231.093c1.265,1.224,2.556,2.363,3.556,3.055l-3.089,3.188l-1.773-1.273l-0.084,0.086   c0.258,1.918-0.387,4.135-2.14,5.944c-2.728,2.815-6.298,2.419-8.423,0.36c-3.533-3.423-2.281-8.279,2.757-13.421l-0.229-0.222   c-0.919-0.891-2.803-1.993-5.196,0.478c-1.336,1.379-2.297,3.232-2.612,4.765l-2.966-1.536c0.37-1.646,1.521-4.041,3.663-6.253   c4.342-4.481,8.438-3.019,11.482-0.069L1089.653,231.093z M1082.839,231.172c-2.479,2.444-4.242,5.357-2.116,7.416   c1.378,1.336,2.873,1.058,3.958-0.062c1.363-1.407,1.445-3.332,0.747-4.622c-0.176-0.336-0.434-0.645-0.664-0.867L1082.839,231.172   z"
   id="path297" />
</g>
<g
   id="g313">
	<path
   d="M605.802,59.301V48.062l-8.52-15.717h5.6l3.239,6.919c0.92,2,1.6,3.52,2.319,5.359h0.08c0.68-1.72,1.439-3.399,2.359-5.359   l3.24-6.919h5.559l-8.959,15.598v11.358H605.802z"
   id="path301" />
	<path
   d="M634.28,54.621c0,1.76,0.08,3.479,0.279,4.679h-4.439l-0.319-2.16h-0.12c-1.199,1.52-3.239,2.6-5.759,2.6   c-3.919,0-6.119-2.839-6.119-5.799c0-4.919,4.359-7.399,11.558-7.359v-0.32c0-1.28-0.52-3.399-3.959-3.399   c-1.92,0-3.92,0.6-5.239,1.439l-0.96-3.199c1.439-0.88,3.959-1.72,7.039-1.72c6.239,0,8.039,3.959,8.039,8.198V54.621z    M629.481,49.782c-3.48-0.08-6.799,0.68-6.799,3.64c0,1.919,1.239,2.799,2.799,2.799c1.959,0,3.399-1.28,3.84-2.679   c0.119-0.36,0.16-0.76,0.16-1.08V49.782z"
   id="path303" />
	<path
   d="M639.482,30.906h4.959v28.395h-4.959V30.906z"
   id="path305" />
	<path
   d="M668.278,49.382c0,7.159-5.039,10.358-9.998,10.358c-5.519,0-9.758-3.799-9.758-10.039c0-6.398,4.199-10.318,10.078-10.318   C664.399,39.384,668.278,43.463,668.278,49.382z M653.601,49.582c0,3.759,1.84,6.599,4.839,6.599c2.8,0,4.76-2.759,4.76-6.679   c0-3.04-1.36-6.519-4.72-6.519C655.001,42.983,653.601,46.343,653.601,49.582z"
   id="path307" />
	<path
   d="M675.121,39.824l3.159,9.878c0.561,1.72,0.961,3.28,1.32,4.879h0.12c0.36-1.6,0.8-3.12,1.319-4.879l3.08-9.878h5.199   l-7.439,19.477h-4.839l-7.239-19.477H675.121z"
   id="path309" />
	<path
   d="M707.199,54.621c0,1.76,0.08,3.479,0.28,4.679h-4.439l-0.32-2.16H702.6c-1.2,1.52-3.24,2.6-5.76,2.6   c-3.919,0-6.119-2.839-6.119-5.799c0-4.919,4.359-7.399,11.559-7.359v-0.32c0-1.28-0.52-3.399-3.959-3.399   c-1.92,0-3.92,0.6-5.24,1.439l-0.959-3.199c1.439-0.88,3.959-1.72,7.039-1.72c6.238,0,8.038,3.959,8.038,8.198V54.621z    M702.4,49.782c-3.479-0.08-6.799,0.68-6.799,3.64c0,1.919,1.239,2.799,2.8,2.799c1.959,0,3.398-1.28,3.839-2.679   c0.12-0.36,0.16-0.76,0.16-1.08V49.782z"
   id="path311" />
</g>
<g
   id="g329">
	<path
   d="M811.682,16.345h4.879v12.398h0.12c0.64-1.04,1.319-2,1.96-2.919l7.039-9.479h6.078l-9.278,11.478l9.878,15.478h-5.759   l-7.639-12.358l-2.399,2.879v9.479h-4.879V16.345z"
   id="path315" />
	<path
   d="M852.919,33.382c0,7.159-5.039,10.358-9.998,10.358c-5.52,0-9.758-3.799-9.758-10.039c0-6.398,4.199-10.318,10.078-10.318   C849.04,23.384,852.919,27.463,852.919,33.382z M838.241,33.582c0,3.759,1.84,6.599,4.84,6.599c2.799,0,4.759-2.759,4.759-6.679   c0-3.04-1.359-6.519-4.72-6.519C839.641,26.983,838.241,30.343,838.241,33.582z"
   id="path317" />
	<path
   d="M871.279,42.7c-1.04,0.48-3.079,1.04-5.519,1.04c-6.08,0-10.039-3.919-10.039-9.958c0-5.839,4-10.398,10.838-10.398   c1.801,0,3.641,0.4,4.76,0.92l-0.88,3.679c-0.8-0.36-1.96-0.76-3.72-0.76c-3.759,0-5.998,2.759-5.959,6.319   c0,4,2.6,6.279,5.959,6.279c1.721,0,2.92-0.36,3.88-0.76L871.279,42.7z"
   id="path319" />
	<path
   d="M890.038,38.621c0,1.76,0.08,3.479,0.281,4.679h-4.439l-0.32-2.16h-0.12c-1.2,1.52-3.239,2.6-5.759,2.6   c-3.92,0-6.119-2.839-6.119-5.799c0-4.919,4.359-7.399,11.559-7.359v-0.32c0-1.28-0.521-3.399-3.96-3.399   c-1.919,0-3.919,0.6-5.239,1.439l-0.959-3.199c1.439-0.88,3.959-1.72,7.038-1.72c6.239,0,8.038,3.959,8.038,8.198V38.621z    M885.239,33.782c-3.479-0.08-6.799,0.68-6.799,3.64c0,1.919,1.24,2.799,2.8,2.799c1.96,0,3.399-1.28,3.839-2.679   c0.121-0.36,0.16-0.76,0.16-1.08V33.782z"
   id="path321" />
	<path
   d="M898.72,34.942c0.12,3.519,2.88,5.039,5.999,5.039c2.279,0,3.919-0.32,5.398-0.88l0.721,3.399   c-1.68,0.68-4,1.24-6.799,1.24c-6.319,0-10.039-3.919-10.039-9.878c0-5.399,3.279-10.478,9.519-10.478   c6.359,0,8.399,5.199,8.399,9.478c0,0.92-0.08,1.64-0.16,2.08H898.72z M907.279,31.503c0.04-1.8-0.761-4.759-4.04-4.759   c-3.039,0-4.318,2.759-4.519,4.759H907.279z"
   id="path323" />
	<path
   d="M915.881,14.906h4.959v28.395h-4.959V14.906z"
   id="path325" />
	<path
   d="M931.399,18.385c0,1.48-1.08,2.64-2.8,2.64c-1.64,0-2.72-1.16-2.72-2.64c0-1.52,1.12-2.679,2.76-2.679   C930.319,15.705,931.359,16.865,931.399,18.385z M926.16,43.301V23.824h4.959v19.477H926.16z"
   id="path327" />
</g>
<g
   id="g349">
	<path
   d="M80.473,699.084c1.56-0.32,4.399-0.56,7.159-0.56c3.639,0,5.879,0.44,7.718,1.72c1.68,1,2.8,2.76,2.8,5.039   c0,2.479-1.56,4.76-4.479,5.839v0.08c2.84,0.72,5.439,2.96,5.439,6.679c0,2.4-1.04,4.279-2.6,5.559   c-1.92,1.68-5.079,2.52-9.999,2.52c-2.719,0-4.799-0.199-6.039-0.359V699.084z M85.353,709.722h2.52c3.399,0,5.319-1.6,5.319-3.88   c0-2.52-1.92-3.679-5.04-3.679c-1.439,0-2.279,0.08-2.799,0.199V709.722z M85.353,722.12c0.64,0.12,1.479,0.12,2.6,0.12   c3.159,0,5.959-1.199,5.959-4.52c0-3.119-2.72-4.398-6.119-4.398h-2.439V722.12z"
   id="path331" />
	<path
   d="M118.55,721c0,1.76,0.08,3.48,0.28,4.68h-4.439l-0.32-2.16h-0.12c-1.2,1.521-3.239,2.6-5.759,2.6   c-3.919,0-6.119-2.839-6.119-5.799c0-4.919,4.359-7.398,11.558-7.358v-0.319c0-1.28-0.52-3.4-3.959-3.4   c-1.919,0-3.919,0.6-5.239,1.439l-0.959-3.199c1.439-0.879,3.959-1.719,7.039-1.719c6.239,0,8.039,3.959,8.039,8.197V721z    M113.751,716.161c-3.479-0.08-6.799,0.681-6.799,3.64c0,1.92,1.24,2.799,2.799,2.799c1.959,0,3.399-1.279,3.839-2.679   c0.12-0.36,0.16-0.761,0.16-1.08V716.161z"
   id="path333" />
	<path
   d="M123.753,697.285h4.959v28.395h-4.959V697.285z"
   id="path335" />
	<path
   d="M134.032,725.679v-19.477h4.959v19.477H134.032z"
   id="path337" />
	<path
   d="M149.191,714.761h0.08c0.48-0.76,1.04-1.6,1.56-2.279l4.719-6.279h5.919l-7.199,7.959l8.239,11.518h-6.039l-5.599-8.599   l-1.68,1.96v6.639h-4.919v-28.395h4.919V714.761z"
   id="path339" />
	<path
   d="M167.831,717.321c0.12,3.519,2.879,5.039,5.999,5.039c2.279,0,3.919-0.319,5.399-0.88l0.72,3.399   c-1.68,0.68-3.999,1.239-6.799,1.239c-6.319,0-10.038-3.919-10.038-9.878c0-5.399,3.279-10.478,9.518-10.478   c6.359,0,8.399,5.198,8.399,9.478c0,0.92-0.08,1.64-0.16,2.08H167.831z M176.39,713.882c0.04-1.8-0.76-4.759-4.04-4.759   c-3.04,0-4.319,2.759-4.519,4.759H176.39z"
   id="path341" />
	<path
   d="M184.751,721.16c1.12,0.68,3.24,1.4,5,1.4c2.16,0,3.119-0.881,3.119-2.16c0-1.32-0.8-2-3.199-2.84   c-3.799-1.319-5.399-3.398-5.359-5.679c0-3.439,2.84-6.118,7.359-6.118c2.16,0,4.04,0.559,5.159,1.159l-0.96,3.479   c-0.84-0.48-2.399-1.12-4.119-1.12c-1.76,0-2.72,0.84-2.72,2.04c0,1.24,0.92,1.84,3.399,2.719c3.52,1.28,5.159,3.08,5.199,5.959   c0,3.52-2.759,6.119-7.918,6.119c-2.36,0-4.479-0.6-5.919-1.399L184.751,721.16z"
   id="path343" />
	<path
   d="M206.91,700.763c0,1.48-1.08,2.64-2.8,2.64c-1.64,0-2.72-1.159-2.72-2.64c0-1.52,1.12-2.68,2.76-2.68   C205.83,698.084,206.87,699.244,206.91,700.763z M201.671,725.679v-19.477h4.959v19.477H201.671z"
   id="path345" />
	<path
   d="M211.91,712.482c0-2.641-0.04-4.52-0.16-6.279h4.279l0.16,3.719h0.16c0.96-2.76,3.24-4.158,5.319-4.158   c0.48,0,0.76,0.039,1.16,0.119v4.64c-0.4-0.08-0.84-0.16-1.439-0.16c-2.36,0-3.959,1.52-4.399,3.72   c-0.08,0.439-0.16,0.959-0.16,1.52v10.078h-4.919V712.482z"
   id="path347" />
</g>






<g
   id="g497">
	<path
   d="M204.662,129.982v20.219h-3.69v-20.219H204.662z M202.802,128.692c-0.99,0-1.8-0.84-1.8-1.8c0-0.99,0.81-1.8,1.86-1.8   c0.99,0,1.74,0.81,1.74,1.8c0,0.96-0.75,1.8-1.77,1.8H202.802z"
   id="path475" />
	<path
   d="M208.922,139.941c0-1.68-0.03-3.09-0.12-4.35h3.18l0.15,2.16h0.09c0.72-1.14,2.04-2.49,4.5-2.49   c1.92,0,3.419,1.08,4.05,2.7h0.06c0.51-0.81,1.11-1.41,1.8-1.83c0.81-0.57,1.74-0.87,2.94-0.87c2.43,0,4.89,1.65,4.89,6.33v8.61   h-3.6v-8.07c0-2.43-0.84-3.87-2.61-3.87c-1.26,0-2.19,0.9-2.58,1.95c-0.09,0.36-0.18,0.81-0.18,1.23v8.76h-3.6v-8.459   c0-2.04-0.81-3.48-2.52-3.48c-1.38,0-2.31,1.08-2.64,2.1c-0.15,0.36-0.21,0.78-0.21,1.2v8.64h-3.6V139.941z"
   id="path477" />
	<path
   d="M234.362,140.302c0-1.98-0.03-3.39-0.12-4.71h3.21l0.12,2.79h0.12c0.72-2.07,2.43-3.12,3.99-3.12   c0.36,0,0.57,0.03,0.87,0.09v3.48c-0.3-0.06-0.63-0.12-1.08-0.12c-1.77,0-2.97,1.14-3.3,2.79c-0.06,0.33-0.12,0.72-0.12,1.14v7.56   h-3.69V140.302z"
   id="path479" />
	<path
   d="M256.112,146.691c0,1.32,0.06,2.61,0.21,3.51h-3.33l-0.24-1.62h-0.09c-0.9,1.14-2.43,1.95-4.32,1.95   c-2.94,0-4.59-2.13-4.59-4.35c0-3.689,3.27-5.55,8.669-5.52v-0.24c0-0.96-0.39-2.55-2.97-2.55c-1.44,0-2.94,0.45-3.93,1.08   l-0.72-2.4c1.08-0.66,2.97-1.29,5.28-1.29c4.68,0,6.03,2.97,6.03,6.15V146.691z M252.512,143.061c-2.61-0.06-5.1,0.51-5.1,2.73   c0,1.44,0.93,2.1,2.1,2.1c1.47,0,2.55-0.96,2.88-2.01c0.09-0.27,0.12-0.57,0.12-0.81V143.061z"
   id="path481" />
	<path
   d="M260.012,128.902h3.72v21.299h-3.72V128.902z"
   id="path483" />
	<path
   d="M267.721,150.201v-14.609h3.72v14.609H267.721z"
   id="path485" />
	<path
   d="M285.81,144.471l-1.74,5.73h-3.81l6.48-20.219h4.709l6.57,20.219h-3.96l-1.83-5.73H285.81z M291.6,141.681l-1.59-4.98   c-0.39-1.23-0.72-2.61-1.02-3.78h-0.06c-0.3,1.17-0.6,2.58-0.96,3.78l-1.56,4.98H291.6z"
   id="path487" />
	<path
   d="M313.77,128.902v17.189c0,1.5,0.06,3.12,0.12,4.11h-3.3l-0.15-2.31h-0.06c-0.87,1.62-2.64,2.64-4.77,2.64   c-3.479,0-6.24-2.97-6.24-7.47c-0.03-4.89,3.03-7.8,6.54-7.8c2.01,0,3.45,0.84,4.11,1.92h0.06v-8.28H313.77z M310.08,141.681   c0-0.3-0.03-0.66-0.09-0.96c-0.33-1.44-1.5-2.61-3.18-2.61c-2.37,0-3.69,2.1-3.69,4.83c0,2.67,1.32,4.62,3.66,4.62   c1.5,0,2.82-1.02,3.18-2.61c0.09-0.33,0.12-0.69,0.12-1.08V141.681z"
   id="path489" />
	<path
   d="M329.07,146.691c0,1.32,0.06,2.61,0.21,3.51h-3.33l-0.24-1.62h-0.09c-0.9,1.14-2.43,1.95-4.32,1.95   c-2.94,0-4.59-2.13-4.59-4.35c0-3.689,3.27-5.55,8.669-5.52v-0.24c0-0.96-0.39-2.55-2.97-2.55c-1.44,0-2.94,0.45-3.93,1.08   l-0.72-2.4c1.08-0.66,2.97-1.29,5.28-1.29c4.68,0,6.03,2.97,6.03,6.15V146.691z M325.47,143.061c-2.61-0.06-5.1,0.51-5.1,2.73   c0,1.44,0.93,2.1,2.1,2.1c1.47,0,2.55-0.96,2.88-2.01c0.09-0.27,0.12-0.57,0.12-0.81V143.061z"
   id="path491" />
	<path
   d="M332.79,146.811c0.84,0.51,2.43,1.05,3.75,1.05c1.62,0,2.34-0.66,2.34-1.62c0-0.99-0.6-1.5-2.4-2.13   c-2.85-0.99-4.05-2.55-4.02-4.26c0-2.58,2.13-4.59,5.52-4.59c1.62,0,3.03,0.42,3.87,0.87l-0.72,2.61c-0.63-0.36-1.8-0.84-3.09-0.84   c-1.32,0-2.04,0.63-2.04,1.53c0,0.93,0.69,1.38,2.55,2.04c2.64,0.96,3.87,2.31,3.9,4.47c0,2.64-2.07,4.59-5.94,4.59   c-1.77,0-3.359-0.45-4.439-1.05L332.79,146.811z"
   id="path493" />
	<path
   d="M345.48,150.201v-14.609h3.72v14.609H345.48z"
   id="path495" />
</g>
<g
   id="g517">
	<path
   d="M742.663,145.982v20.219h-3.69v-20.219H742.663z M740.802,144.692c-0.99,0-1.8-0.84-1.8-1.8c0-0.99,0.81-1.8,1.859-1.8   c0.99,0,1.74,0.81,1.74,1.8c0,0.96-0.75,1.8-1.77,1.8H740.802z"
   id="path499" />
	<path
   d="M745.572,164.071l5.489-7.02c0.75-0.9,1.381-1.62,2.16-2.46v-0.06h-7.109v-2.94h11.609v2.25l-5.369,6.87   c-0.721,0.87-1.41,1.71-2.16,2.49v0.06h7.709v2.94h-12.329V164.071z"
   id="path501" />
	<path
   d="M760.452,155.941c0-1.68-0.03-3.09-0.12-4.35h3.239l0.181,2.19h0.09c0.63-1.14,2.22-2.52,4.649-2.52   c2.551,0,5.19,1.65,5.19,6.27v8.669h-3.69v-8.25c0-2.1-0.779-3.69-2.789-3.69c-1.471,0-2.49,1.05-2.881,2.16   c-0.119,0.33-0.149,0.78-0.149,1.2v8.58h-3.72V155.941z"
   id="path503" />
	<path
   d="M781.542,147.511c0,1.11-0.811,1.98-2.1,1.98c-1.23,0-2.041-0.87-2.041-1.98c0-1.14,0.84-2.01,2.07-2.01   C780.731,145.502,781.511,146.372,781.542,147.511z M777.612,166.201v-14.609h3.719v14.609H777.612z"
   id="path505" />
	<path
   d="M788.981,158.011h0.061c0.359-0.57,0.779-1.2,1.17-1.71l3.539-4.71h4.439l-5.399,5.97l6.18,8.64h-4.53l-4.199-6.45   l-1.26,1.47v4.98h-3.689v-21.299h3.689V158.011z"
   id="path507" />
	<path
   d="M823.12,165.271c-1.29,0.48-3.811,1.14-6.51,1.14c-3.42,0-6-0.87-7.92-2.7c-1.8-1.71-2.85-4.38-2.82-7.44   c0-6.39,4.561-10.5,11.25-10.5c2.49,0,4.439,0.51,5.369,0.96l-0.81,2.97c-1.11-0.48-2.46-0.87-4.59-0.87   c-4.319,0-7.35,2.55-7.35,7.26c0,4.59,2.819,7.319,7.021,7.319c1.319,0,2.309-0.18,2.789-0.42v-5.04h-3.57v-2.91h7.141V165.271z"
   id="path509" />
	<path
   d="M840.819,158.761c0,5.37-3.779,7.77-7.5,7.77c-4.139,0-7.319-2.85-7.319-7.53c0-4.8,3.149-7.74,7.56-7.74   C837.909,151.261,840.819,154.322,840.819,158.761z M830.41,149.312c-1.05,0-1.83-0.84-1.83-1.83c0-1.05,0.81-1.86,1.89-1.86   c0.99,0,1.77,0.78,1.77,1.86c0,0.99-0.75,1.83-1.799,1.83H830.41z M829.809,158.911c0,2.82,1.381,4.95,3.631,4.95   c2.1,0,3.569-2.07,3.569-5.01c0-2.28-1.021-4.89-3.54-4.89C830.86,153.962,829.809,156.481,829.809,158.911z M836.38,149.312   c-1.051,0-1.801-0.84-1.801-1.83c0-1.05,0.781-1.86,1.83-1.86c1.051,0,1.801,0.78,1.801,1.86c0,0.99-0.75,1.83-1.801,1.83H836.38z"
   id="path511" />
	<path
   d="M843.85,144.902h3.719v21.299h-3.719V144.902z"
   id="path513" />
	<path
   d="M864.639,161.821c0,1.74,0.06,3.18,0.119,4.38h-3.24l-0.18-2.22h-0.06c-0.63,1.05-2.07,2.55-4.681,2.55   c-2.67,0-5.1-1.59-5.1-6.36v-8.58h3.69v7.95c0,2.43,0.78,3.99,2.729,3.99c1.471,0,2.43-1.05,2.82-1.98   c0.12-0.33,0.21-0.72,0.21-1.14v-8.82h3.69V161.821z M855.189,149.312c-1.05,0-1.83-0.84-1.83-1.83c0-1.05,0.81-1.86,1.89-1.86   c0.99,0,1.771,0.78,1.771,1.86c0,0.99-0.75,1.83-1.8,1.83H855.189z M861.159,149.312c-1.05,0-1.8-0.84-1.8-1.83   c0-1.05,0.78-1.86,1.829-1.86c1.051,0,1.801,0.78,1.801,1.86c0,0.99-0.75,1.83-1.801,1.83H861.159z"
   id="path515" />
</g>
<g
   id="g545">
	<path
   d="M64.844,47.428c-0.2-4.35-0.45-9.601-0.4-14.201h-0.15c-1.1,4.15-2.5,8.701-4,12.951l-4.9,14.601h-4.75l-4.5-14.401   c-1.3-4.3-2.5-8.901-3.4-13.151h-0.1c-0.15,4.45-0.35,9.801-0.6,14.401l-0.75,13.551h-5.75l2.25-33.702h8.101l4.4,13.551   c1.2,3.95,2.25,7.951,3.1,11.701h0.15c0.9-3.65,2.05-7.8,3.35-11.75l4.65-13.501h8l1.95,33.702h-6L64.844,47.428z"
   id="path519" />
	<path
   d="M84.193,51.628l-2.9,9.551h-6.35l10.8-33.702h7.851l10.951,33.702h-6.601l-3.05-9.551H84.193z M93.844,46.978l-2.65-8.301   c-0.65-2.05-1.2-4.35-1.7-6.3h-0.1c-0.5,1.95-1,4.3-1.6,6.3l-2.6,8.301H93.844z"
   id="path521" />
	<path
   d="M109.242,27.927c2.3-0.4,5.75-0.7,9.3-0.7c4.851,0,8.151,0.8,10.401,2.7c1.85,1.55,2.9,3.9,2.9,6.75   c0,4.35-2.95,7.3-6.1,8.451v0.15c2.4,0.9,3.85,3.25,4.7,6.5c1.05,4.2,1.95,8.1,2.65,9.4h-6.351c-0.5-1-1.3-3.75-2.25-7.951   c-0.95-4.4-2.55-5.8-6.05-5.9h-3.101v13.851h-6.1V27.927z M115.342,42.828h3.65c4.15,0,6.75-2.2,6.75-5.55c0-3.7-2.6-5.4-6.601-5.4   c-1.95,0-3.2,0.15-3.8,0.3V42.828z"
   id="path523" />
	<path
   d="M166.143,47.428c-0.2-4.35-0.45-9.601-0.4-14.201h-0.15c-1.1,4.15-2.5,8.701-4,12.951l-4.9,14.601h-4.75l-4.5-14.401   c-1.3-4.3-2.5-8.901-3.4-13.151h-0.1c-0.15,4.45-0.35,9.801-0.6,14.401l-0.75,13.551h-5.75l2.25-33.702h8.101l4.4,13.551   c1.2,3.95,2.25,7.951,3.1,11.701h0.15c0.9-3.65,2.05-7.8,3.35-11.75l4.65-13.501h8l1.95,33.702h-6L166.143,47.428z"
   id="path525" />
	<path
   d="M185.491,51.628l-2.9,9.551h-6.35l10.8-33.702h7.851l10.951,33.702h-6.601l-3.05-9.551H185.491z M195.142,46.978   l-2.65-8.301c-0.65-2.05-1.2-4.35-1.7-6.3h-0.1c-0.5,1.95-1,4.3-1.6,6.3l-2.6,8.301H195.142z"
   id="path527" />
	<path
   d="M210.54,27.927c2.3-0.4,5.75-0.7,9.3-0.7c4.851,0,8.151,0.8,10.401,2.7c1.85,1.55,2.9,3.9,2.9,6.75   c0,4.35-2.95,7.3-6.1,8.451v0.15c2.4,0.9,3.85,3.25,4.7,6.5c1.05,4.2,1.95,8.1,2.65,9.4h-6.351c-0.5-1-1.3-3.75-2.25-7.951   c-0.95-4.4-2.55-5.8-6.05-5.9h-3.101v13.851h-6.1V27.927z M216.64,42.828h3.65c4.15,0,6.75-2.2,6.75-5.55c0-3.7-2.6-5.4-6.601-5.4   c-1.95,0-3.2,0.15-3.8,0.3V42.828z"
   id="path529" />
	<path
   d="M246.09,51.628l-2.9,9.551h-6.35l10.8-33.702h7.851l10.951,33.702h-6.601l-3.05-9.551H246.09z M255.74,46.978l-2.65-8.301   c-0.65-2.05-1.2-4.35-1.7-6.3h-0.1c-0.5,1.95-1,4.3-1.6,6.3l-2.6,8.301H255.74z"
   id="path531" />
	<path
   d="M281.488,27.927c2.7-0.45,6.15-0.7,9.8-0.7c6.301,0,10.651,1.3,13.751,3.9c3.25,2.65,5.25,6.65,5.25,12.401   c0,6-2.05,10.5-5.25,13.4c-3.35,3.05-8.7,4.601-15.251,4.601c-3.6,0-6.3-0.2-8.3-0.45V27.927z M287.638,56.479   c0.85,0.15,2.15,0.15,3.4,0.15c8,0.05,12.751-4.35,12.751-12.901c0.05-7.45-4.25-11.701-11.951-11.701c-1.95,0-3.35,0.15-4.2,0.35   V56.479z"
   id="path533" />
	<path
   d="M334.488,46.228h-12.701v9.9h14.201v5.05h-20.351V27.477h19.601v5.05h-13.451v8.701h12.701V46.228z"
   id="path535" />
	<path
   d="M341.387,61.179V27.477h7l8.7,14.451c2.25,3.75,4.201,7.65,5.75,11.3h0.1c-0.4-4.5-0.55-8.851-0.55-14V27.477h5.701v33.702   h-6.351l-8.8-14.851c-2.15-3.65-4.4-7.8-6.05-11.601l-0.15,0.05c0.25,4.351,0.3,8.801,0.3,14.351v12.051H341.387z"
   id="path537" />
	<path
   d="M381.337,27.477v33.702h-6.15V27.477H381.337z M378.237,25.327c-1.65,0-3-1.4-3-3c0-1.65,1.35-3,3.1-3   c1.65,0,2.9,1.35,2.9,3c0,1.6-1.25,3-2.95,3H378.237z"
   id="path539" />
	<path
   d="M386.137,57.779l17.25-25.051v-0.15h-15.7v-5.101h23.701v3.6l-17.001,24.802v0.2h17.251v5.1h-25.501V57.779z"
   id="path541" />
	<path
   d="M422.837,27.477v33.702h-6.15V27.477H422.837z M419.737,25.327c-1.65,0-3-1.4-3-3c0-1.65,1.35-3,3.1-3   c1.65,0,2.9,1.35,2.9,3c0,1.6-1.25,3-2.95,3H419.737z"
   id="path543" />
</g>


<line
   fill="none"
   stroke="#000000"
   stroke-width="4"
   x1="1086.509"
   y1="109.679"
   x2="1066.509"
   y2="225.679"
   id="line589" />
<circle
   cx="1086.384"
   cy="108.304"
   r="6.125"
   id="circle591" />
</svg>
